<?xml version="1.0" encoding="utf-8"?>
<!-- Generator: Adobe Illustrator 19.1.1, SVG Export Plug-In . SVG Version: 6.00 Build 0)  -->
<svg version="1.1" xmlns="http://www.w3.org/2000/svg" xmlns:xlink="http://www.w3.org/1999/xlink" x="0px" y="0px"
	 viewBox="0 0 491 566.9" style="enable-background:new 0 0 491 566.9;" xml:space="preserve">
<style type="text/css">
	.st0{fill:#FBE8B5;}
	.st1{fill:#173944;}
	.st2{fill:#AD1F30;}
	.st3{fill:#CDCCCC;}
	.st4{fill:#6B3319;}
	.st5{fill:#982D20;}
	.st6{fill:#E2E2DD;}
	.st7{fill:#173944;stroke:#3B3029;stroke-miterlimit:10;}
	.st8{display:none;}
	.st9{display:inline;}
	.st10{fill:#3B3029;}
	.st11{fill:#8D694A;}
	.st12{fill:#58595B;}
	.st13{fill:#ACB76A;}
	.st14{fill:#322E59;}
	.st15{fill:#F8E4A5;}
	.st16{fill:#B97B2B;}
	.st17{fill:#D5C4B2;}
	.st18{fill:#453E37;}
	.st19{fill:#FFFFFF;}
	.st20{fill:#D37A6E;}
</style>
<g id="Background">
	<polygon class="st0" points="245.5,547.6 16.8,415.5 16.8,151.4 245.5,19.4 474.2,151.4 474.2,415.5 	"/>
</g>
<g id="Curve">
	<g>
		<g>
			<g>
				<path class="st5" d="M37,200.1c0-1.9-1.5-3.4-3.4-3.4c-1.9,0-3.4,1.5-3.4,3.4c0,1.9,1.5,3.4,3.4,3.4
					C35.5,203.4,37,201.9,37,200.1"/>
				<path class="st5" d="M33.6,205.3c-2.9,0-5.2-2.3-5.2-5.2c0-2.9,2.3-5.2,5.2-5.2s5.2,2.3,5.2,5.2C38.8,203,36.5,205.3,33.6,205.3
					z M33.6,198.6c-0.8,0-1.5,0.7-1.5,1.5c0,0.8,0.7,1.5,1.5,1.5s1.5-0.7,1.5-1.5C35.1,199.3,34.4,198.6,33.6,198.6z"/>
			</g>
			<g>
				<path class="st5" d="M60.4,225.1c0-1.9-1.5-3.4-3.4-3.4s-3.4,1.5-3.4,3.4c0,1.9,1.5,3.4,3.4,3.4S60.4,227,60.4,225.1"/>
				<path class="st5" d="M57.1,230.3c-2.9,0-5.2-2.3-5.2-5.2c0-2.9,2.3-5.2,5.2-5.2c2.9,0,5.2,2.3,5.2,5.2
					C62.3,228,59.9,230.3,57.1,230.3z M57.1,223.6c-0.8,0-1.5,0.7-1.5,1.5c0,0.8,0.7,1.5,1.5,1.5c0.8,0,1.5-0.7,1.5-1.5
					C58.5,224.3,57.9,223.6,57.1,223.6z"/>
			</g>
			<g>
				<path class="st5" d="M84.3,163.2c0-1.9-1.5-3.4-3.4-3.4c-1.9,0-3.4,1.5-3.4,3.4c0,1.9,1.5,3.4,3.4,3.4
					C82.8,166.6,84.3,165.1,84.3,163.2"/>
				<path class="st5" d="M80.9,168.5c-2.9,0-5.2-2.3-5.2-5.2c0-2.9,2.3-5.2,5.2-5.2c2.9,0,5.2,2.3,5.2,5.2
					C86.1,166.1,83.8,168.5,80.9,168.5z M80.9,161.8c-0.8,0-1.5,0.7-1.5,1.5c0,0.8,0.7,1.5,1.5,1.5c0.8,0,1.5-0.7,1.5-1.5
					C82.4,162.4,81.7,161.8,80.9,161.8z"/>
			</g>
			<g>
				<path class="st5" d="M105.6,194.7c0-1.9-1.5-3.4-3.4-3.4c-1.9,0-3.4,1.5-3.4,3.4c0,1.9,1.5,3.4,3.4,3.4
					C104.1,198.1,105.6,196.6,105.6,194.7"/>
				<path class="st5" d="M102.3,200c-2.9,0-5.2-2.3-5.2-5.2s2.3-5.2,5.2-5.2c2.9,0,5.2,2.3,5.2,5.2S105.2,200,102.3,200z
					 M102.3,193.3c-0.8,0-1.5,0.7-1.5,1.5c0,0.8,0.7,1.5,1.5,1.5s1.5-0.7,1.5-1.5C103.8,193.9,103.1,193.3,102.3,193.3z"/>
			</g>
			<g>
				<path class="st5" d="M129.1,146c0-1.9-1.5-3.4-3.4-3.4c-1.9,0-3.4,1.5-3.4,3.4c0,1.9,1.5,3.4,3.4,3.4
					C127.6,149.3,129.1,147.8,129.1,146"/>
				<path class="st5" d="M125.7,151.2c-2.9,0-5.2-2.3-5.2-5.2c0-2.9,2.3-5.2,5.2-5.2c2.9,0,5.2,2.3,5.2,5.2
					C130.9,148.8,128.6,151.2,125.7,151.2z M125.7,144.5c-0.8,0-1.5,0.7-1.5,1.5c0,0.8,0.7,1.5,1.5,1.5c0.8,0,1.5-0.7,1.5-1.5
					C127.2,145.1,126.5,144.5,125.7,144.5z"/>
			</g>
			<g>
				<path class="st5" d="M155.4,147c0-1.9-1.5-3.4-3.4-3.4s-3.4,1.5-3.4,3.4c0,1.9,1.5,3.4,3.4,3.4S155.4,148.9,155.4,147"/>
				<path class="st5" d="M152,152.2c-2.9,0-5.2-2.3-5.2-5.2c0-2.9,2.3-5.2,5.2-5.2c2.9,0,5.2,2.3,5.2,5.2
					C157.3,149.9,154.9,152.2,152,152.2z M152,145.5c-0.8,0-1.5,0.7-1.5,1.5c0,0.8,0.7,1.5,1.5,1.5c0.8,0,1.5-0.7,1.5-1.5
					C153.5,146.2,152.9,145.5,152,145.5z"/>
			</g>
			<g>
				<path class="st5" d="M179.7,96.8c0-1.9-1.5-3.4-3.4-3.4c-1.9,0-3.4,1.5-3.4,3.4c0,1.9,1.5,3.4,3.4,3.4
					C178.2,100.1,179.7,98.6,179.7,96.8"/>
				<path class="st5" d="M176.3,102c-2.9,0-5.2-2.3-5.2-5.2c0-2.9,2.3-5.2,5.2-5.2c2.9,0,5.2,2.3,5.2,5.2
					C181.5,99.6,179.2,102,176.3,102z M176.3,95.3c-0.8,0-1.5,0.7-1.5,1.5s0.7,1.5,1.5,1.5c0.8,0,1.5-0.7,1.5-1.5
					S177.1,95.3,176.3,95.3z"/>
			</g>
			<g>
				<path class="st5" d="M203.5,164.4c0-1.9-1.5-3.4-3.4-3.4c-1.9,0-3.4,1.5-3.4,3.4s1.5,3.4,3.4,3.4
					C202,167.8,203.5,166.3,203.5,164.4"/>
				<path class="st5" d="M200.2,169.7c-2.9,0-5.2-2.3-5.2-5.2c0-2.9,2.3-5.2,5.2-5.2c2.9,0,5.2,2.3,5.2,5.2
					C205.4,167.3,203,169.7,200.2,169.7z M200.2,162.9c-0.8,0-1.5,0.7-1.5,1.5c0,0.8,0.7,1.5,1.5,1.5c0.8,0,1.5-0.7,1.5-1.5
					C201.7,163.6,201,162.9,200.2,162.9z"/>
			</g>
			<g>
				<path class="st5" d="M228.6,143.5c0-1.9-1.5-3.4-3.4-3.4c-1.9,0-3.4,1.5-3.4,3.4c0,1.9,1.5,3.4,3.4,3.4
					C227.1,146.9,228.6,145.4,228.6,143.5"/>
				<path class="st5" d="M225.3,148.8c-2.9,0-5.2-2.3-5.2-5.2s2.3-5.2,5.2-5.2s5.2,2.3,5.2,5.2S228.1,148.8,225.3,148.8z M225.3,142
					c-0.8,0-1.5,0.7-1.5,1.5c0,0.8,0.7,1.5,1.5,1.5c0.8,0,1.5-0.7,1.5-1.5C226.7,142.7,226.1,142,225.3,142z"/>
			</g>
			<g>
				<path class="st5" d="M257.4,167.2c0-1.9-1.5-3.4-3.4-3.4c-1.9,0-3.4,1.5-3.4,3.4c0,1.9,1.5,3.4,3.4,3.4
					C255.9,170.5,257.4,169,257.4,167.2"/>
				<path class="st5" d="M254.1,172.4c-2.9,0-5.2-2.3-5.2-5.2c0-2.9,2.3-5.2,5.2-5.2s5.2,2.3,5.2,5.2
					C259.3,170,257,172.4,254.1,172.4z M254.1,165.7c-0.8,0-1.5,0.7-1.5,1.5c0,0.8,0.7,1.5,1.5,1.5c0.8,0,1.5-0.7,1.5-1.5
					C255.6,166.3,254.9,165.7,254.1,165.7z"/>
			</g>
			<g>
				<path class="st5" d="M276,128.9c0-1.9-1.5-3.4-3.4-3.4c-1.9,0-3.4,1.5-3.4,3.4c0,1.9,1.5,3.4,3.4,3.4
					C274.5,132.2,276,130.7,276,128.9"/>
				<path class="st5" d="M272.6,134.1c-2.9,0-5.2-2.3-5.2-5.2c0-2.9,2.3-5.2,5.2-5.2c2.9,0,5.2,2.3,5.2,5.2
					C277.8,131.8,275.5,134.1,272.6,134.1z M272.6,127.4c-0.8,0-1.5,0.7-1.5,1.5c0,0.8,0.7,1.5,1.5,1.5c0.8,0,1.5-0.7,1.5-1.5
					C274.1,128.1,273.4,127.4,272.6,127.4z"/>
			</g>
			<g>
				<path class="st5" d="M346.6,129.9c0-1.9-1.5-3.4-3.4-3.4c-1.9,0-3.4,1.5-3.4,3.4c0,1.9,1.5,3.4,3.4,3.4
					C345.1,133.2,346.6,131.7,346.6,129.9"/>
				<path class="st5" d="M343.3,135.1c-2.9,0-5.2-2.3-5.2-5.2s2.3-5.2,5.2-5.2c2.9,0,5.2,2.3,5.2,5.2S346.1,135.1,343.3,135.1z
					 M343.3,128.4c-0.8,0-1.5,0.7-1.5,1.5c0,0.8,0.7,1.5,1.5,1.5s1.5-0.7,1.5-1.5C344.8,129,344.1,128.4,343.3,128.4z"/>
			</g>
			<g>
				<path class="st5" d="M380.6,139.9c0-1.9-1.5-3.4-3.4-3.4s-3.4,1.5-3.4,3.4c0,1.9,1.5,3.4,3.4,3.4S380.6,141.7,380.6,139.9"/>
				<path class="st5" d="M377.2,145.1c-2.9,0-5.2-2.3-5.2-5.2c0-2.9,2.3-5.2,5.2-5.2c2.9,0,5.2,2.3,5.2,5.2
					C382.4,142.7,380.1,145.1,377.2,145.1z M377.2,138.4c-0.8,0-1.5,0.7-1.5,1.5c0,0.8,0.7,1.5,1.5,1.5c0.8,0,1.5-0.7,1.5-1.5
					C378.7,139,378,138.4,377.2,138.4z"/>
			</g>
			<g>
				<path class="st5" d="M300.7,135.4c0-1.9-1.5-3.4-3.4-3.4c-1.9,0-3.4,1.5-3.4,3.4c0,1.9,1.5,3.4,3.4,3.4
					C299.2,138.8,300.7,137.3,300.7,135.4"/>
				<path class="st5" d="M297.4,140.6c-2.9,0-5.2-2.3-5.2-5.2c0-2.9,2.3-5.2,5.2-5.2c2.9,0,5.2,2.3,5.2,5.2
					C302.6,138.3,300.3,140.6,297.4,140.6z M297.4,133.9c-0.8,0-1.5,0.7-1.5,1.5c0,0.8,0.7,1.5,1.5,1.5c0.8,0,1.5-0.7,1.5-1.5
					C298.9,134.6,298.2,133.9,297.4,133.9z"/>
			</g>
			<g>
				<path class="st5" d="M326.3,164.8c0-1.9-1.5-3.4-3.4-3.4s-3.4,1.5-3.4,3.4c0,1.9,1.5,3.4,3.4,3.4S326.3,166.7,326.3,164.8"/>
				<path class="st5" d="M322.9,170.1c-2.9,0-5.2-2.3-5.2-5.2c0-2.9,2.3-5.2,5.2-5.2c2.9,0,5.2,2.3,5.2,5.2
					C328.1,167.7,325.8,170.1,322.9,170.1z M322.9,163.3c-0.8,0-1.5,0.7-1.5,1.5c0,0.8,0.7,1.5,1.5,1.5c0.8,0,1.5-0.7,1.5-1.5
					C324.4,164,323.7,163.3,322.9,163.3z"/>
			</g>
			<g>
				<path class="st5" d="M411.8,211.5c0-1.9-1.5-3.4-3.4-3.4c-1.9,0-3.4,1.5-3.4,3.4s1.5,3.4,3.4,3.4
					C410.3,214.8,411.8,213.3,411.8,211.5"/>
				<path class="st5" d="M408.4,216.7c-2.9,0-5.2-2.3-5.2-5.2c0-2.9,2.3-5.2,5.2-5.2c2.9,0,5.2,2.3,5.2,5.2
					C413.7,214.3,411.3,216.7,408.4,216.7z M408.4,210c-0.8,0-1.5,0.7-1.5,1.5c0,0.8,0.7,1.5,1.5,1.5s1.5-0.7,1.5-1.5
					C409.9,210.6,409.3,210,408.4,210z"/>
			</g>
			<g>
				<path class="st5" d="M398.2,174.2c0-1.9-1.5-3.4-3.4-3.4c-1.9,0-3.4,1.5-3.4,3.4c0,1.9,1.5,3.4,3.4,3.4
					C396.7,177.5,398.2,176,398.2,174.2"/>
				<path class="st5" d="M394.8,179.4c-2.9,0-5.2-2.3-5.2-5.2s2.3-5.2,5.2-5.2c2.9,0,5.2,2.3,5.2,5.2S397.7,179.4,394.8,179.4z
					 M394.8,172.7c-0.8,0-1.5,0.7-1.5,1.5c0,0.8,0.7,1.5,1.5,1.5c0.8,0,1.5-0.7,1.5-1.5C396.3,173.3,395.6,172.7,394.8,172.7z"/>
			</g>
			<g>
				<path class="st5" d="M465.3,204c0-1.9-1.5-3.4-3.4-3.4c-1.9,0-3.4,1.5-3.4,3.4s1.5,3.4,3.4,3.4
					C463.8,207.3,465.3,205.8,465.3,204"/>
				<path class="st5" d="M461.9,209.2c-2.9,0-5.2-2.3-5.2-5.2c0-2.9,2.3-5.2,5.2-5.2c2.9,0,5.2,2.3,5.2,5.2
					C467.2,206.9,464.8,209.2,461.9,209.2z M461.9,202.5c-0.8,0-1.5,0.7-1.5,1.5c0,0.8,0.7,1.5,1.5,1.5c0.8,0,1.5-0.7,1.5-1.5
					C463.4,203.2,462.8,202.5,461.9,202.5z"/>
			</g>
			<g>
				<path class="st5" d="M437.4,226.6c0-1.9-1.5-3.4-3.4-3.4s-3.4,1.5-3.4,3.4s1.5,3.4,3.4,3.4S437.4,228.4,437.4,226.6"/>
				<path class="st5" d="M434,231.8c-2.9,0-5.2-2.3-5.2-5.2c0-2.9,2.3-5.2,5.2-5.2c2.9,0,5.2,2.3,5.2,5.2
					C439.3,229.4,436.9,231.8,434,231.8z M434,225.1c-0.8,0-1.5,0.7-1.5,1.5c0,0.8,0.7,1.5,1.5,1.5c0.8,0,1.5-0.7,1.5-1.5
					C435.5,225.7,434.9,225.1,434,225.1z"/>
			</g>
		</g>
	</g>
	<polygon class="st2" points="434.1,228.5 407.2,212.4 394,174.3 376.2,140.8 343.9,131.3 324,167.4 297,136.1 274,129.9 
		255.1,169.7 225.2,144.5 199.6,166.5 176.1,100 152.7,149.2 126.6,146.7 102.9,198 81.2,165.9 57.5,227.4 33.9,201.4 12.4,221.2 
		10.7,219.4 34,197.9 56.6,222.7 80.6,160.6 102.5,193 125.1,144.1 151.2,146.5 176.5,93.5 200.7,162.3 225.2,141.3 254.2,165.7 
		272.6,126.9 298.4,133.9 323.6,163.1 342.7,128.4 377.9,138.7 396.3,173.4 409.2,210.7 433.8,225.4 461.5,202.3 483.8,213.4 
		482.7,215.6 461.9,205.2 	"/>
</g>
<g id="Toolbox">
	<path class="st6" d="M306.1,196.3c-16.8,13.3-33.6,26.5-50.4,39.8v76.2h105.3c0-25.4,0-50.8,0-76.2
		C342.8,222.8,324.5,209.5,306.1,196.3z M320.5,235.7h-26.9c-3.5,0-6.4-2.9-6.4-6.4c0-3.5,2.9-6.4,6.4-6.4h26.9
		c3.5,0,6.4,2.9,6.4,6.4C326.9,232.9,324,235.7,320.5,235.7z"/>
	<g>
		<g>
			<path class="st1" d="M320.8,237.9h-26.9c-4.5,0-8.2-3.7-8.2-8.2c0-4.5,3.7-8.2,8.2-8.2h26.9c4.5,0,8.2,3.7,8.2,8.2
				C329.1,234.2,325.4,237.9,320.8,237.9z M293.9,225.2c-2.5,0-4.5,2-4.5,4.5c0,2.5,2,4.5,4.5,4.5h26.9c2.5,0,4.5-2,4.5-4.5
				c0-2.5-2-4.5-4.5-4.5H293.9z"/>
			<path class="st7" d="M362.3,313.5H254.5v-78.1l51.6-40.7l56.2,40.7V313.5z M257,311h102.9v-74.4l-53.7-38.8L257,236.6V311z"/>
		</g>
	</g>
	<g>
		<g>
			<g>
				<g>
					<g>
						<path class="st1" d="M136,193C136,193,136,193,136,193C136,193,136,193,136,193L136,193z"/>
						<path class="st1" d="M109,205.3c0.5,0.4,0.6,1,1.3,1.4c1.7,1,3.6,1.4,5.4,2.2c4.2,1.8,8.6,3.4,12.5,5.7
							c2.3,1.4,4.5,2.8,6.4,4.6c0.8,0.8,1.3,1.8,2,2.7c2.2,3.2,4.3,6.5,6.3,9.8c3.4,5.6,6.8,11.1,10.2,16.7
							c4.5,7.4,9,14.8,13.6,22.2c3.4,5.5,6.8,11,10.2,16.4c2.4,3.8,4.6,7.8,7.1,11.6c1.2,1.8,2.5,3.6,4.6,4.6
							c3.4,1.6,7.3,0.9,10.1-1.6c2-1.8,2.7-4,2.9-6.5c0-0.8-0.2-1.5-0.6-2.2c-1.4-2.2-2.7-4.5-4.1-6.8c-1.4-2.2-2.6-4.6-4.2-6.7
							c-4-5.4-7.3-11.1-11-16.7c-2.1-3.3-4.3-6.6-6.4-9.9c-1.8-2.9-3.8-5.7-5.7-8.6c-2.8-4.1-5.4-8.4-8.1-12.5
							c-3.9-6-7.6-12.1-11.1-17.7c-2.3-4.1-3.8-8-4.6-12.1c-0.8-3.9-0.8-7.9-1-11.9c-0.2-4,0.2-8.1-0.6-12c-0.8-4.4-2-8.8-5.3-12.1
							c-2.9-3-6.4-5-10.5-6.2c-5.1-1.4-10.2-1.5-15.4-0.5c-1,0.2-2,0.7-2.8,1.3c-0.9,0.6-0.8,1.1,0,1.8c3.8,3,7.6,6,11.4,8.9
							c0.7,0.6,1,1.5,1.9,1.9c0.6,0.2,0.5,1.3,0.3,1.8c-0.4,1.4-0.1,2.8-0.3,4.1c-0.2,1.4-1.9,3.4-3.3,3.5c-0.4,0.1-0.9-0.4-1.3-0.7
							c-3.6-2.7-7.1-5.4-10.7-8.1c-0.4-0.3-0.8-0.7-1-1.1c-0.7-1.3-2.1-1.8-3.3-2.6c-0.4-0.2-0.8,0-1.1,0.5
							c-0.4,0.8-0.3,1.6-0.1,2.5c0.4,1.9,0.8,3.9,1.2,5.8c0.2,1.1,0.2,2.3,0.7,3.3c0.9,2,1.5,4,2.6,5.9c1,1.8,2.5,3.3,3.5,5.2
							c0.3,0.7,1.2,1.1,1.6,1.9c0.3,0.5,0.3,0.9-0.1,1.4c-1.3,1.8-2.5,3.7-3.8,5.5C107.5,203.8,107.6,204.4,109,205.3z M172.1,276.8
							c-0.1-0.3-0.1-0.8,0.4-0.9c0.3-0.1,0.7-0.3,0.9,0.1c0.2,0.4,0,0.7-0.5,0.8C172.7,277,172.3,277.1,172.1,276.8z M173.1,277.6
							c0.1-0.2,0-0.4,0.2-0.4c0.3-0.1,0.5,0.1,0.6,0.3c0.3,0.5,0.9,0.9,0.9,1.5c0,0.8,0.4,1.2,1.2,1.6c-1.1,0.5-1.3-0.2-1.5-0.8
							c-0.2-0.7-0.3-1.3-1.1-1.6C173.1,278.1,173,277.9,173.1,277.6z M177.4,283.1c0.1,0.1,0.2,0.3,0,0.4c-0.2,0.2-0.3-0.1-0.5-0.1
							c-0.1-0.1-0.1-0.3,0.1-0.3C177.2,283,177.3,282.9,177.4,283.1z M176.2,283c0.1-0.1,0.2-0.2,0.3-0.3c0.1-0.1,0.3-0.1,0.3,0.1
							c0.1,0.2-0.1,0.3-0.2,0.4C176.4,283.2,176.3,283.2,176.2,283z M178.7,286.5c-0.6-0.3-0.4-1.1-1-1.4c-0.2-0.1-0.3-0.3-0.4-0.4
							c-0.4-0.4-0.1-0.5,0.2-0.7c0.4-0.3,0.4-0.1,0.5,0.2c0.4,0.7,0.6,1.6,1.3,2c0.1,0.3,0.3,0.6,0.1,0.8c-0.1,0.2-0.4,0.2-0.7,0.2
							c0-0.2,0-0.3,0-0.5C178.8,286.6,178.8,286.5,178.7,286.5z M182.5,292.1c-0.1,0.2-0.3,0.1-0.3,0.1c-0.5-0.3,0.1-0.7,0-1
							C182.4,291.4,182.8,291.6,182.5,292.1z M174.9,276.5c-0.6-0.5-0.7-1.3-1.2-2c-0.5-0.7-0.8-1.8-1.3-2.4
							c-1.5-1.6-2.1-3.8-3.4-5.5c-1.3-1.8-2.4-3.8-3.5-5.8c-0.9-1.6-2-3.2-3-4.8c-1.9-3-3.8-6.1-5.6-9.2c-2.1-3.6-4.4-7.1-6.5-10.6
							c-2.7-4.4-5.5-8.8-8-13.3c-0.4-0.8-1-1.6-1.4-2.4c-0.7-1.5-0.6-3,1-4.1c1.1-0.8,3.1-1.1,4-0.2c1.2,1.3,2.7,2.3,3.5,3.9
							c0.4,0.7,1.2,1.2,1.3,2.1c0.1,0.5,0.3,0.7,0.5,1c0.9,1.2,1.8,2.5,2.6,3.8c1.1,1.7,2,3.4,3.2,5c1,1.3,1.7,2.7,2.6,4
							c1.5,2.2,2.9,4.5,4.3,6.7c1.8,2.9,3.6,5.7,5.4,8.5c3.2,4.9,6.4,9.8,9.6,14.7c0.1,0.1,0.1,0.3,0.1,0.4c0,0.1-0.1,0.3-0.2,0.4
							c0.2,0,0.3,0.1,0.4,0.3c0,0.3,0.2,0.6,0.4,0.8c1.2,1.3,2.3,2.7,3.1,4.2c0.2,0.3,1,1.3-0.4,1.4c-0.1,0-0.2,0.2-0.1,0.2
							c0.1,0.1,0.2,0.2,0.3,0.2c0.3,0.1,0.5-0.2,0.7-0.4c0.1-0.1,0.2-0.2,0.4,0c0.1,0.1,0.1,0.2,0.1,0.3c-0.1,0.5-1.9,1.3-2.3,1.1
							c-0.2-0.1-0.1-0.6-0.5-0.3c-0.3,0.3,0.2,0.8-0.2,1.2c-0.1,0.2,0.3,0.1,0.4,0.1c0.2,0,0.5,0.1,0.6,0.3c0.1,0.3,0,0.5-0.2,0.8
							c-0.2,0.2-0.9,0.2-0.6,0.7c0.1,0.2,0.6,0.2,0.9,0.3c0.2,0,0.3,0.1,0.5,0.1c0.6-0.1,1,0.3,1.1,0.7c0.1,0.5-0.6,0.4-0.9,0.5
							c-0.2,0-0.3,0-0.3,0.3c0,0.2,0,0.4,0.2,0.5c0.2,0.1,0.4,0.1,0.4-0.1c0.1-0.9,1-0.6,1.5-0.9c1.4,1.6,0.4,3.2,0.2,4.9
							c-0.4-0.2-0.7-0.4-1.1-0.6c-0.5,0.5,0.2,0.9,0.1,1.3c0.3,0,0.7-0.1,0.9,0.3c0,0,0.3-0.3,0.3-0.5c0.2-0.5,0.5-0.9,1.3-0.8
							c-0.2,0.3-0.6,0.8,0,1c1.1,0.4,0.3,1,0.1,1.3c-0.8,0.9-0.9,1-0.3,1.7c-0.1,0-0.2,0-0.3,0c-0.3,0-0.6-0.2-0.8,0.1
							c0,0.1,0,0.2,0,0.3c0.3-0.2,0.7,0.5,1.1-0.1c0,0,0-0.1,0.1-0.1c0.6-0.3,1.1-0.3,1.6,0.1c0.2,0.1,0.2,0.4,0.1,0.4
							c-0.6,0.1-0.7,1-1.5,1c-0.9,0.1-0.8-1-1.5-0.9c0.1,0.2,0.1,0.3,0.2,0.4c-1,0.3-0.5,1.2-0.7,1.8c-0.1,0.3-0.3,0.6-0.5,0.5
							c-0.4-0.2-0.1-0.4,0-0.7c0.2-0.3,0.2-0.7-0.1-1c-0.4-0.4-0.4,0.2-0.6,0.2c-0.2,0.1-0.5,0-0.4-0.3c0.1-0.5-0.3-0.6-0.5-0.8
							c-0.4-0.4-0.8-1.1-0.8-1.3c0.2-1.1-1-1.4-1.2-2.3c0.1-0.3,0.4,0.1,0.6-0.2c-0.6,0.1-0.4-0.9-1.1-0.7c-0.3-0.5-0.5-1.2-0.9-1.5
							c-0.8-0.7-1.2-1.5-1.5-2.4c-0.2-0.6-0.3-1.1-1-1.3c-0.5-0.2-0.8-0.7-0.9-1.2C175.2,277,175.2,276.8,174.9,276.5z M186.9,290.1
							c0.3,1.3,1,1,1.5,0.7c0.7-0.4,1.3-0.8,1.8-1.5c0.2-0.3,0.5-0.3,0.8-0.1c0.2,0.1,0.5,0.1,0.5,0.3c0,0.4-0.4,0.3-0.6,0.5
							c-1,0.7-2.3,0.9-3,2.1c0,0.1-0.2,0-0.3,0.1C187.6,291.5,186.5,291.3,186.9,290.1z M183.8,277.6c0.2-0.2,0.5-0.4,0.7-0.3
							c0.3,0.2,0.5,0.6,0.8,1c-0.4,0.1-0.7,0.2-1,0.3C184.4,278.1,183.5,278.2,183.8,277.6z M183.8,276.4c0.2-0.1,0.3-0.5,0.7-0.3
							l0,0c0.4,0.4,0,0.6-0.2,0.9c-0.1,0.3-0.5,0.2-0.8,0.1c-0.1,0-0.2-0.2-0.2-0.3C183.2,276.5,183.5,276.5,183.8,276.4z
							 M182.9,275.1c0.2,0,0.5-0.3,0.6,0c0.1,0.1-0.1,0.4-0.2,0.6c-0.3,0.3-0.4,0-0.6-0.2C182.6,275.3,182.7,275.1,182.9,275.1z
							 M184.4,276c0.1-0.1,0.2-0.1,0.2,0c-0.1,0-0.1,0.1-0.2,0.1C184.4,276,184.3,276,184.4,276z M185.1,278.8c0,0.1,0,0.1-0.1,0.1
							c0,0,0,0,0-0.1C185,278.7,185.1,278.7,185.1,278.8C185.1,278.7,185.1,278.7,185.1,278.8z M186.5,281.5c0.3,0,0.7-0.1,0.9,0.2
							c0.1,0.1,0.1,0.4-0.3,0.5c-0.3-0.1-0.7,0.4-0.9,0C185.9,281.9,186.3,281.5,186.5,281.5z M187.7,283.1c-0.5-0.6,0.4-1,0.1-1.5
							c0.2-0.1,0.6-0.2,0.6-0.1c0.1,0.4,0.5,0,0.5,0.2c0,0.2-0.1,0.4-0.3,0.4C188,282.1,188,282.8,187.7,283.1z M193.1,288.9
							c0.3-0.2,0.6-0.3,0.7,0c0.1,0.4-0.2,0.5-0.6,0.5c-0.5,0-0.9,0.2-1.5,0.2C191.9,288.7,192.7,289.2,193.1,288.9z M190.4,286.1
							c0.9-0.7,0.9-0.7,1.4-0.2C191.4,286,191,286.1,190.4,286.1z M189.7,283.5c-0.3,0-0.7,0.2-0.9-0.1c-0.2-0.3-0.1-0.6,0.2-0.9
							c0.5-0.4,0.6,0.5,1,0.2C190,283.1,189.8,283.3,189.7,283.5z M185.8,275.7c-0.8,0.5,0.1,0.7,0.2,1c-0.7-0.1-1.2-0.2-1.4-0.8
							c0.4-0.7,0-1-0.6-1.2c-0.2-0.1-0.4-0.2-0.4-0.4c0-0.1,0.1-0.2,0.1-0.3c0.2-0.1,0.4,0.1,0.5,0.2c0.3,0.3,0.7,0.6,0.9,0.9
							C185.4,275.5,185.9,275.7,185.8,275.7z M185.3,291.7c-0.3-0.1-0.4,0.3-0.7,0.6c0-0.5,0.2-1,0-1.4l0,0l0,0.1
							c0.1-0.1,0.3-0.2,0.3-0.2c0.3,0.3,0.9-0.7,1.1,0.3C186.2,291.9,185.9,291.8,185.3,291.7z M185.8,293.9c-0.5-0.2-0.7-0.5-0.5-1
							c0.4,0.1,0.4,0.8,1,0.6C186.5,293.4,186.2,294,185.8,293.9z M179.5,283.9c0-0.1,0-0.1,0.1-0.1
							C179.7,283.9,179.7,283.9,179.5,283.9C179.5,284,179.5,284,179.5,283.9z M192.2,302.8c-1.2,0-2.6-0.6-3.2-1.9
							c0.8,1,2.1,1.1,3.1,1.1c2.3,0.1,4.4-0.7,5.8-2.8c0.3-0.5,0.3-0.5,0.9-0.6C197.6,301.6,195.2,302.8,192.2,302.8z M196.1,293.4
							c0.4,2.5-0.1,3.7-2.3,4.9c-1.3,0.7-1.8,0.7-3.8,0.5c-1.7-0.2-2.1-1.3-1.8-2.6c0.6-2.6,3.8-4.7,6.8-4
							C195.6,292.3,196,292.7,196.1,293.4z M194.9,290c-0.4,0.5-0.7,1-1.6,0.9c-1.4-0.2-2.4,1.2-3.7,1.4c-0.1,0-0.2,0.2-0.2,0.2
							c0.2,1-0.8,0.9-1.2,1.3c-0.2,0.2-0.6,0.3-0.6,0.4c0,1.4-1.3,0.8-1.9,1.3c-0.2,0.2-0.3-0.1-0.4-0.3c-0.1-0.4,0.2-0.3,0.3-0.3
							c0.7-0.3,1.4-0.7,1.8-1.4c0.7-1.1,1.8-1.8,3-2.6c1.2-0.5,2.8-0.7,4.1-1.5c0.3-0.2,0.5,0.1,0.6,0.2
							C195.4,289.8,195.1,289.9,194.9,290z M193.1,283.2c0.4,0.5,0.5,0.7,0.7,0.9c0.3,0.4-0.2,1.1-0.7,0.7
							C192.7,284.4,193.2,283.9,193.1,283.2z M192,282c0,0,0,0.1,0,0.2c-0.1,0-0.1,0-0.2,0c0-0.1,0-0.1,0-0.2
							C191.9,282,192,282,192,282z M189.5,277.7c0.1,0.4,0.4,0.9,0,1.3c-0.6,0.1-0.1-0.6-0.6-0.7c-0.5-0.1-0.2-0.4,0-0.6
							C189.1,277.5,189.4,277.3,189.5,277.7z M184.5,269.7c0.2,0.2,0.2,0.6,0,0.8c-0.3,0.2-0.7-0.1-0.7-0.2
							c-0.3-0.9-1.3-1.3-1.7-2.3c-0.5-0.6-0.7-1.7-1.6-2.3c-0.5-0.4-0.6-1-0.8-1.5c-0.2-0.3,0-0.5,0.3-0.6c0.3-0.1,0.3,0.2,0.4,0.3
							c0.7,0.5,0.9,1.5,1.4,1.9C183,266.8,183.4,268.5,184.5,269.7z M133.2,193.4c0.1,0,0.3,0.1,0.3,0.2c0,0.4-0.3,0.8-0.8,1.2
							C132.9,194.1,132.7,193.7,133.2,193.4z M134.5,196.4C134.5,196.5,134.5,196.5,134.5,196.4c-0.1,0-0.1,0-0.1,0
							C134.4,196.4,134.5,196.4,134.5,196.4z M135.2,198.8c-0.1-0.1-0.1-0.2-0.2-0.3c0.1,0,0.1,0,0.2,0
							C135.4,198.6,135.3,198.7,135.2,198.8z M131.3,200.2c0.1-0.3,0.3-0.2,0.5-0.1c0.8,0.6,1.7,0.9,2.6,1.3
							c0.2,0.1,0.8,0.5,0.1,0.8c-0.2,0.1-0.2,0.4-0.3,0.6c0.2-0.5-0.1-0.7-0.4-1c-0.6-0.5-1.3-0.9-2.1-1.1
							C131.3,200.6,131.3,200.4,131.3,200.2z M128.2,198.3c0.1-0.1,0.2-0.2,0.3-0.1c0.6,0.4,1.4,0.5,1.8,1.3c-0.9,0-1.5-0.5-2.1-0.9
							C128.2,198.5,128.2,198.4,128.2,198.3z M130.2,202.1c0.1-0.2,0-0.4,0-0.6c0-0.4,0.4-0.5,0.7-0.6c0.1,0,0.3-0.2,0.4,0.1
							c0.1,0.3,0.2,0.7-0.1,0.9c-0.9,0.5-0.4,1,0,1.5C130,203.3,129.8,202.9,130.2,202.1z M127.1,200.9c0.1-0.1,0.2-0.1,0.3-0.2
							c0.2,0.8,1.2,0.6,1.4,1.6c-0.7-0.1-1.2-0.5-1.7-0.8C127,201.3,126.9,201.1,127.1,200.9z M127.4,205.1c0-0.3,0.2-0.4,0.4-0.3
							c0.6,0.2,0.9,0,0.8-0.7c0-0.3,0.2-0.7,0.6-0.7c0.2,0,0.3,0.1,0.4,0.2c0.2,0.4,0,0.8-0.3,0.9c-0.9,0.3-0.5,0.7-0.1,1.1
							c0.2,0.2,0.4,0.3,0.1,0.5C129,206.2,127.4,205.3,127.4,205.1z M131.2,206.6c0.1,0.2,0.1,0.3-0.2,0.5c-0.3,0.1-0.7,0-0.9-0.3
							c-0.1-0.1-0.1-0.4,0-0.5C130.6,206.2,131,206.2,131.2,206.6z M124.8,203.4c0.5,0.2,0.9,0.3,1.3,0.5c0.1,0.1,0.5,0.1,0.3,0.4
							c-0.1,0.2-0.4,0.4-0.5,0.2C125.6,204.1,124.9,204.1,124.8,203.4z M124.4,210.8c0-0.2,0.2-0.2,0.4-0.3c0.3,0,0.5-0.2,0.6-0.6
							c-0.3,0-0.6,0.3-0.7-0.1c0-0.1,0-0.2,0.1-0.3c0.6-0.6,1.3-1,1.6-1.8c0.1-0.3,0.3-0.1,0.5,0c1,0.5,2.1,1,3.2,1.5
							c0.7,0.3,1.5,0.6,1.9,1.4c0.1,0.2,0.3,0.4,0.5,0.2c0.4-0.5,1.1-0.6,1.4-1.2c0.5-0.9,1.1-1.7,1.8-2.6c1.3-1.8,2.6-3.7,3.7-5.7
							c0.1-0.2,0.6-0.3,0.3-0.6c-0.3-0.2-0.7-0.4-1.1-0.4c-0.6,0-0.8,0-1.1-0.4c-0.5-0.6-1-0.6-1.4,0.1c0.3-0.7-0.2-1-0.7-1.3l0,0
							c0.3-0.2,1-0.2,0.3-0.9c-0.4-0.4-0.9-0.8-1-1.5c0.4-0.6,0-1.5,0.7-2.1c0.3,0,0.5,0.7,0.9,0.2c-0.5,0-0.2-0.5-0.5-0.7
							c-0.5-0.4,0.4-0.4,0.3-0.8c-0.3,0-0.6-0.2-0.5-0.4c0.4-0.7,0.5-1.7,1.7-1.4c0.2,0,0.2-0.2,0.3-0.3c-0.3-0.4-0.7,0.3-0.9-0.2
							c0.1-0.3,0.5-0.2,0.6-0.7c0-0.5,0.7-1.1,1.5-1.1c0.3,0,1.4,0.7,0.7-0.6c-0.1-0.2,0.1-0.3,0.3-0.4c0.9-0.5,0.8-1,0.2-1.7
							c-0.2-0.2-0.3-0.5-0.1-0.6c0.3-0.2,0.2,0.2,0.3,0.3c0.3,0.2,0.7,0.3,1.1,0.5c0.1-0.2,0.2-0.4,0.2-0.5c-0.4-1,0-1.4,1-1.5
							c-0.1-0.6-0.8-0.4-0.8-0.9c1.1,0,1.1,0,1.3,1.5c0.3,1.8,0.5,3.7,0.8,5.5c0.2,1.5,0.1,3,0.3,4.4c0.3,2.1,0.7,4.2,0.9,6.3
							c0.3,2.8,1,5.5,1.8,8.2c0.7,2.4,2.1,4.6,3.3,6.8c2.5,4.6,5.7,8.9,8.5,13.4c1.1,1.9,2.8,3.4,3.6,5.5c0,0.1,0.1,0.1,0.1,0.1
							c0.6,0.4,1,1,1.5,1.6c0.7,0.9,1,1.9,1.6,2.9c1.2,2,2.4,3.9,3.7,5.8c1.7,2.5,3,5.3,4.9,7.6c0.4,0.5,0.4,1.5,0.9,1.8
							c0.9,0.7,1.2,1.8,1.9,2.7c0.8,1.2,1.4,2.6,2.6,3.6c0.2,0.2,0.5,0.8,0.2,1.3c-0.2,0.3-0.5,0.2-0.8,0.2
							c-0.5-0.1-0.2-0.5-0.4-0.8c-1.7-1.6-2.5-3.8-3.9-5.6c-2-2.7-3.7-5.7-5.6-8.5c-1.2-1.8-2.2-3.7-3.5-5.4
							c-1.6-2.2-3.1-4.6-4.6-6.9c-2.2-3.4-4.5-6.6-6.6-10.1c-1.9-3.1-4.2-6-6.1-9.1c-0.9-1.5-2.7-2.2-4.3-2.1c-3.9,0.3-5.1,4-3.5,7
							c0.9,1.7,2,3.4,3.1,5c0.7,1,1,2.2,1.8,3.2c0.8,0.9,1.3,2,1.9,3c0.6,1.1,1.1,2.3,1.9,3.4c0.3,0.3,0.6,0.6,0.8,1.1
							c0.9,2.1,2.3,3.9,3.5,5.9c1.2,2,2.3,4,3.5,6c1.5,2.6,3.2,5,4.6,7.6c1.6,2.9,3.5,5.8,5.2,8.7c0.3,0.5,0.8,0.8,1,1.3
							c0.6,1.6,1.6,3,2.5,4.5c0.1,0.1,0.2,0.2,0.2,0.4c0.1,0.7,0.2,1.5,1,1.9c0.2,0.1,0.7,0.8,0.4,1.1c-0.4,0.5-0.7-0.1-1-0.4
							c-1.2-1.2-1.9-2.7-2.9-4c-0.9-1.1-0.6-3-2.3-3.7c-0.1,0-0.1-0.2-0.1-0.3c0.1-0.7-0.5-1.1-0.8-1.6c-0.8-1.3-1.6-2.5-2.5-3.7
							c-1.4-1.9-2.2-4.2-3.5-6.2c-0.8-1.2-1.7-2.3-2.3-3.7c-0.9-1.9-2.4-3.6-3.4-5.4c-1.6-3-3.3-5.8-5.1-8.7
							c-2.3-3.7-4.5-7.4-6.8-11c-1.4-2.3-3.1-4.4-5-6.2c-2-2-4.5-3.5-7-4.9c-0.8-0.5-1.8-0.7-2.4-1.3c-0.6-0.5-1.7-0.7-1.7-1.8
							c0,0-0.1,0-0.2,0C124.5,211.2,124.4,211.1,124.4,210.8z"/>
					</g>
				</g>
				<path class="st6" d="M135.2,198.8c0.5,0.4,1.1,0.7,0.5,1.5c0.4-0.8,0.9-0.9,1.5-0.3c0.4,0.4,0.5,0.4,1.1,0.4
					c0.4,0,0.8,0.2,1.1,0.4c0.3,0.3-0.2,0.4-0.3,0.6c-1,2-2.4,3.8-3.7,5.7c-0.6,0.8-1.3,1.7-1.8,2.6c-0.3,0.6-1,0.7-1.4,1.2
					c-0.2,0.2-0.4,0-0.5-0.2c-0.4-0.8-1.2-1.1-1.9-1.4c-1.1-0.5-2.1-1-3.2-1.5c-0.2-0.1-0.4-0.3-0.5,0c-0.3,0.8-1,1.3-1.6,1.8
					c-0.1,0.1-0.1,0.2-0.1,0.3c0.2,0.3,0.5,0.1,0.7,0.1c-0.1,0.4-0.3,0.5-0.6,0.6c-0.2,0-0.4,0-0.4,0.3c0,0.2,0.1,0.4,0.4,0.3
					c0.1,0,0.2,0,0.2,0c0,1.1,1.1,1.3,1.7,1.8c0.7,0.6,1.6,0.9,2.4,1.3c2.5,1.5,4.9,3,7,4.9c1.9,1.8,3.6,3.9,5,6.2
					c2.3,3.7,4.5,7.4,6.8,11c1.8,2.9,3.5,5.7,5.1,8.7c1,1.9,2.5,3.5,3.4,5.4c0.6,1.3,1.5,2.5,2.3,3.7c1.3,2,2.2,4.2,3.5,6.2
					c0.9,1.2,1.7,2.5,2.5,3.7c0.3,0.5,0.9,0.9,0.8,1.6c0,0.1,0.1,0.2,0.1,0.3c1.6,0.7,1.3,2.6,2.3,3.7c1.1,1.3,1.8,2.8,2.9,4
					c0.3,0.3,0.6,0.9,1,0.4c0.3-0.3-0.2-0.9-0.4-1.1c-0.8-0.4-0.9-1.2-1-1.9c0-0.2-0.2-0.3-0.2-0.4c-0.9-1.4-1.9-2.9-2.5-4.5
					c-0.2-0.5-0.7-0.8-1-1.3c-1.7-2.9-3.6-5.7-5.2-8.7c-1.5-2.6-3.1-5.1-4.6-7.6c-1.2-2-2.3-4-3.5-6c-1.2-2-2.6-3.8-3.5-5.9
					c-0.2-0.4-0.5-0.7-0.8-1.1c-0.8-1-1.3-2.2-1.9-3.4c-0.6-1-1.1-2.1-1.9-3c-0.8-1-1.1-2.2-1.8-3.2c-1.1-1.6-2.1-3.3-3.1-5
					c-1.6-3-0.4-6.7,3.5-7c1.6-0.1,3.4,0.5,4.3,2.1c1.9,3.2,4.2,6,6.1,9.1c2.1,3.4,4.5,6.7,6.6,10.1c1.5,2.3,3,4.7,4.6,6.9
					c1.3,1.7,2.3,3.7,3.5,5.4c1.9,2.8,3.6,5.7,5.6,8.5c1.3,1.8,2.2,4,3.9,5.6c0.2,0.2-0.1,0.7,0.4,0.8c0.3,0,0.6,0.2,0.8-0.2
					c0.3-0.5,0-1.1-0.2-1.3c-1.2-1-1.8-2.4-2.6-3.6c-0.6-0.9-0.9-2-1.9-2.7c-0.4-0.4-0.4-1.3-0.9-1.8c-1.9-2.4-3.2-5.1-4.9-7.6
					c-1.3-1.9-2.5-3.9-3.7-5.8c-0.6-0.9-1-2-1.6-2.9c-0.4-0.6-0.9-1.2-1.5-1.6c-0.1,0-0.1-0.1-0.1-0.1c-0.8-2.1-2.5-3.7-3.6-5.5
					c-2.8-4.5-5.9-8.8-8.5-13.4c-1.2-2.2-2.5-4.4-3.3-6.8c-0.8-2.7-1.5-5.4-1.8-8.2c-0.3-2.1-0.7-4.2-0.9-6.3c-0.2-1.5,0-3-0.3-4.4
					c-0.3-1.8-0.5-3.7-0.8-5.5c-0.2-1.5-0.3-1.5-1.3-1.5c0,0.5,0.8,0.4,0.8,0.9c-1,0-1.4,0.5-1,1.5c0,0.1-0.1,0.3-0.2,0.5
					c-0.4-0.1-0.7-0.3-1.1-0.5c-0.1-0.1,0-0.5-0.3-0.3c-0.3,0.2-0.1,0.5,0.1,0.6c0.6,0.6,0.7,1.2-0.2,1.7c-0.2,0.1-0.4,0.2-0.3,0.4
					c0.7,1.3-0.4,0.6-0.7,0.6c-0.8,0-1.4,0.6-1.5,1.1c0,0.5-0.5,0.5-0.6,0.7c0.3,0.5,0.7-0.1,0.9,0.2c-0.1,0.1-0.1,0.4-0.3,0.3
					c-1.2-0.3-1.3,0.8-1.7,1.4c-0.1,0.2,0.2,0.4,0.5,0.4c0,0,0-0.1,0-0.1c0,0,0,0,0,0c0,0,0,0.1-0.1,0.1c0.1,0.3-0.8,0.4-0.3,0.8
					c0.2,0.2,0,0.7,0.5,0.7c-0.4,0.6-0.7-0.1-0.9-0.2c-0.7,0.6-0.2,1.5-0.7,2.1l0,0c0.1,0.7,0.6,1.1,1,1.5
					C136.2,198.6,135.6,198.6,135.2,198.8L135.2,198.8z M138.1,189.7c0.1-0.4,0.4-0.5,0.6-0.2c0.3,0.4-0.1,0.7-0.3,0.8
					c-0.3,0.2-0.7,0-0.9-0.3C137.3,189.5,137.9,189.8,138.1,189.7z M136.3,198.4c0,0.3-0.2,0.3-0.4,0.3c0,0-0.1-0.1-0.1-0.1
					C136,198.6,136.1,198.5,136.3,198.4z"/>
				<path class="st6" d="M150.2,236c2.1,3.6,4.4,7,6.5,10.6c1.8,3.1,3.7,6.2,5.6,9.2c1,1.6,2.1,3.2,3,4.8c1.1,2,2.2,4,3.5,5.8
					c1.3,1.8,1.9,3.9,3.4,5.5c0.5,0.6,0.8,1.8,1.3,2.4c0.5,0.6,0.7,1.4,1.2,2c0.3,0.3,0.4,0.5,0.4,0.9c0.1,0.5,0.4,1,0.9,1.2
					c0.7,0.2,0.9,0.7,1,1.3c0.3,0.9,0.7,1.7,1.5,2.4c0.4,0.4,0.6,1,0.9,1.5c0.7-0.3,0.5,0.7,1.1,0.7c-0.2,0.3-0.6-0.1-0.6,0.2
					c0.2,0.9,1.4,1.2,1.2,2.3c0,0.2,0.4,0.9,0.8,1.3c0.2,0.2,0.6,0.3,0.5,0.8c-0.1,0.3,0.2,0.3,0.4,0.3c0.2-0.1,0.2-0.6,0.6-0.2
					c0.3,0.3,0.2,0.6,0.1,1c-0.1,0.2-0.5,0.5,0,0.7c0.3,0.1,0.4-0.2,0.5-0.5c0.2-0.6-0.3-1.5,0.7-1.8c-0.1-0.1-0.1-0.3-0.2-0.4
					c0.7-0.1,0.7,1,1.5,0.9c0.8-0.1,0.9-0.9,1.5-1c0.1,0,0-0.3-0.1-0.4c-0.5-0.4-1.1-0.4-1.6-0.1c0,0-0.1,0-0.1,0.1
					c-0.3,0.5-0.7-0.1-1.1,0.1c0-0.1-0.1-0.2,0-0.3c0.2-0.3,0.6-0.1,0.8-0.1c0.1,0,0.2,0,0.3,0c-0.6-0.7-0.5-0.8,0.3-1.7
					c0.3-0.3,1-0.9-0.1-1.3c-0.5-0.2-0.2-0.6,0-1c-0.7-0.1-1.1,0.2-1.3,0.8c-0.1,0.3-0.3,0.5-0.3,0.5c-0.2-0.4-0.6-0.3-0.9-0.3
					c0.1-0.5-0.6-0.9-0.1-1.3c0.4,0.2,0.7,0.4,1.1,0.6c0.1-1.7,1.2-3.4-0.2-4.9c-0.5,0.3-1.3,0-1.5,0.9c0,0.2-0.3,0.2-0.4,0.1
					c-0.2-0.1-0.2-0.3-0.2-0.5c0-0.2,0.1-0.2,0.3-0.3c0.4-0.1,1,0.1,0.9-0.5c0-0.4-0.5-0.8-1.1-0.7c-0.2,0-0.3,0-0.5-0.1
					c-0.3-0.1-0.8-0.1-0.9-0.3c-0.3-0.5,0.4-0.4,0.6-0.7c0.2-0.2,0.3-0.5,0.2-0.8c-0.1-0.3-0.4-0.3-0.6-0.3c-0.2,0-0.6,0-0.4-0.1
					c0.3-0.4-0.2-0.8,0.2-1.2c0.4-0.4,0.3,0.2,0.5,0.3c0.5,0.2,2.2-0.6,2.3-1.1c0-0.1,0-0.2-0.1-0.3c-0.1-0.1-0.3-0.1-0.4,0
					c-0.2,0.2-0.4,0.5-0.7,0.4c-0.1,0-0.2-0.1-0.3-0.2c0,0,0.1-0.2,0.1-0.2c1.4-0.1,0.6-1,0.4-1.4c-0.8-1.5-1.9-2.9-3.1-4.2
					c-0.2-0.2-0.4-0.4-0.4-0.8c0-0.2-0.1-0.3-0.4-0.3c0.1-0.1,0.2-0.3,0.2-0.4c0-0.1,0-0.3-0.1-0.4c-3.2-4.9-6.4-9.8-9.6-14.7
					c-1.8-2.8-3.6-5.7-5.4-8.5c-1.4-2.3-2.8-4.6-4.3-6.7c-0.9-1.3-1.7-2.7-2.6-4c-1.2-1.6-2.1-3.3-3.2-5c-0.8-1.3-1.7-2.6-2.6-3.8
					c-0.3-0.3-0.5-0.6-0.5-1c-0.1-0.9-0.9-1.3-1.3-2.1c-0.8-1.6-2.3-2.6-3.5-3.9c-0.9-0.9-2.9-0.6-4,0.2c-1.6,1.1-1.7,2.6-1,4.1
					c0.4,0.8,0.9,1.6,1.4,2.4C144.8,227.2,147.6,231.6,150.2,236z M160.9,248.6L160.9,248.6c-0.1,0-0.1,0-0.2,0
					C160.8,248.6,160.8,248.6,160.9,248.6z M155.4,234.6c0-0.1,0-0.2,0.1-0.2C155.5,234.5,155.4,234.6,155.4,234.6z M182.4,281.1
					L182.4,281.1c-0.1-0.2-0.2-0.3-0.3-0.3C182.2,280.8,182.3,280.9,182.4,281.1z M182,280.8C182,280.8,182,280.8,182,280.8
					C182,280.8,182,280.8,182,280.8z M182.4,283.7c-0.2,0.1-0.3,0.1-0.5-0.1C182,283.8,182.2,283.8,182.4,283.7
					c0.2-0.1,0.3-0.2,0.2-0.4C182.6,283.5,182.6,283.6,182.4,283.7z M163.9,248.8c0.4,0.3,0.8,0.5,1.1,0.8c0.1,0.1,0.1,0.1,0.2,0.2
					c-0.1-0.1-0.1-0.2-0.2-0.2C164.7,249.3,164.3,249.1,163.9,248.8c1-1.5,1-2.2,0-2.4C164.9,246.6,164.9,247.3,163.9,248.8z"/>
			</g>
			<g>
				<path class="st1" d="M392.4,177.5c0.8-1.7,1.6-3.5,2.4-5.2c0.3-0.6,0.5-1.1,0.8-1.7c0-0.4,0-0.8,0.1-1.2
					c-0.1-0.1-0.1-0.3-0.2-0.4c-3.4-1.6-6.7-3.2-10.1-4.7c-0.1-0.1-0.2-0.2-0.4-0.2c-1.7-0.5-3.3-1.3-4.8-2.1
					c-0.1-0.1-0.3-0.1-0.4-0.2c-3.5-1.6-6.9-3.3-10.4-4.9c-1.5-0.7-2.9-1.5-4.6-1.3c-0.2,0.1-0.4,0.2-0.6,0.1l0,0
					c-0.2-0.2-0.4-0.2-0.6,0c-0.4,0-0.8,0-1.1,0.1c-1.8,0.7-3.5,0.3-5.3-0.3c0,0,0,0,0,0c-3-0.5-5.9-1.5-8.8-2.3
					c-2.6-0.7-5.3-1.3-7.9-2c-0.6-0.1-1.1-0.1-1.6,0.3c-0.9,1-1.5,2.2-1.7,3.5c0,0.1,0.1,0.1,0.1,0.2c0.2,0.1,0.4,0.2,0.6,0.3
					c0.1-0.2,0.3-0.3,0.6-0.2c0.1-0.1,0.3-0.1,0.4-0.2c-0.1,0.1-0.3,0.1-0.4,0.2c-0.2,0-0.4,0-0.6,0.2c-0.2-0.1-0.4-0.2-0.6-0.3
					c0.1,0.3,0.3,0.4,0.6,0.5c0.1,0,0.2,0.1,0.4,0.1c1.5,1.1,3.4,1.4,4.9,2.6c0,0,0.2-0.1,0.3-0.1l0,0c0.2,0.1,0.4,0.2,0.6,0.3
					c0.7,0.8,1.8,0.9,2.7,1.3c0,0.1,0.1,0.1,0.1,0.2c0.1,0,0.1,0,0.2,0c0.1,0.1,0.1,0.1,0.2,0.2c0.5,0.1,0.9,0.6,1.5,0.5
					c-0.2-0.2-0.5-0.5-0.7-0.7c0.3,0.2,0.5,0.4,0.7,0.7c0.1,0,0.1,0.1,0.2,0.1c0.1,0.1,0.3,0.2,0.4,0.2l0-0.1
					c3.4,1.8,6.9,3.6,10.5,5c0.5,0.2,0.9,0.5,1.4,0.7c-0.5,1.5-1.4,2.7-2.1,4.1c-1.1,1.4-2.3,2.9-2.9,4.6c-0.1,0.1-0.2,0.2-0.3,0.3
					c0,0.1,0,0.2-0.1,0.2c-0.1,0-0.2,0-0.4,0.1c0,0.1,0.1,0.2,0.1,0.3c-0.1,0.3-0.3,0.5-0.4,0.8c0.1,0.4-0.2,0.7-0.3,1.1
					c0.2,0.2,0.5,0.5,0.2,0.7c-0.4,0.5-0.5,1.3-1.1,1.7c0,0.1-0.1,0.2-0.1,0.4c-1.3,2.7-2.7,5.4-4.3,8c0.1,0.2,0.1,0.4-0.1,0.5
					c-0.7,1.4-1.4,2.8-2.1,4.2c0.1,0.2,0,0.3-0.2,0.5c-0.2,0.7-0.5,1.4-1,2c0,0.1,0,0.2,0,0.3c-0.2,0.3-0.3,0.7-0.5,1
					c-0.1,0.6-0.4,1.2-0.8,1.7c-0.1,0.2-0.2,0.4-0.3,0.6c-0.1,0.1-0.2,0.3-0.3,0.4c-0.1,0.7-0.5,1.3-0.8,1.9c-0.3,1-0.8,2-1.4,2.9
					c-0.1,0.1-0.1,0.3-0.2,0.4c0,0.3-0.2,0.6-0.4,0.8c-0.1,0.3-0.3,0.5-0.4,0.8c-1,2.2-2.1,4.4-3.5,6.4c-0.1,0.1-0.1,0.3-0.2,0.4
					c-0.7,2-1.8,3.8-3,5.6c-0.5,1.2-1.1,2.3-1.8,3.4c-0.1,0.1-0.2,0.3-0.3,0.4c-0.3,1.1-0.9,2.1-1.5,3c-0.1,0.2-0.1,0.3-0.2,0.5
					c-0.4,1-0.9,1.9-1.6,2.7c-0.2,0.6-0.4,1.2-0.9,1.6c-0.3,0.6-0.5,1.3-1,1.7c-0.1,0.5-0.2,0.9-0.6,1.3c-0.6,1.2-1.2,2.5-2,3.5
					c-0.3,0.9-0.7,1.7-1.3,2.4c-0.1,0.4-0.4,0.8-0.7,1.1c-0.1,0.1-0.2,0.3-0.2,0.4c-0.5,1.2-1.1,2.3-1.8,3.4c0,0.2-0.1,0.3-0.3,0.4
					c-1.9,3.6-3.8,7.2-5.7,10.8c-0.1,0.5-0.3,1-0.8,1.4c-0.2,0.6-0.5,1.2-0.7,1.9c0,0.4-0.2,0.8-0.6,1.1c-0.8,1.5-1.5,3.1-2.3,4.6
					c0,0.5-0.2,0.9-0.6,1.3c-0.5,1-0.9,2-1.4,3c-0.1,0.8-0.5,1.4-1,2c-0.1,0.1-0.1,0.1-0.2,0.2c-0.1,0.2-0.2,0.4-0.3,0.6
					c-0.8,2-1.9,4-3,5.9c0,0.4-0.2,0.7-0.5,1c0,0.1,0,0.2,0,0.2c-0.8,2.2-1.9,4.2-3.2,6.1c-0.1,0.2-0.2,0.3-0.3,0.5
					c0,0.2-0.1,0.4-0.3,0.5c-0.1,0.1-0.1,0.2-0.2,0.3c0,0.2-0.1,0.4-0.2,0.5c-1.3,2.2-2.5,4.5-3.8,6.7c0,0.3-0.1,0.5-0.4,0.6
					c-1.4,2.4-2.9,4.8-4.3,7.3c-0.5,0.9-1.1,1.9-0.2,3c2.2-3.9,4.5-7.8,6.7-11.7c3.1-5.5,6.1-11.1,8.9-16.7
					c3.6-7.4,7.1-14.8,10.8-22.1c2.5-4.9,5.2-9.7,7.9-14.6c3.5-6.4,7-12.8,10.6-19.2c3.7-6.7,7.3-13.4,10.7-20.2
					c1.9-3.7,3.4-7.5,5.3-11.2c1.3-2.6,2.4-5.3,4.1-7.6c0.1-0.2,0.2-0.4,0.3-0.6c0.5-1.9,1.4-1.7,2.7-1.2c3.4,1.6,6.8,3.1,10.1,4.8
					c0.8,0.4,1.7,0.7,2.4,1.4c0.1,0,0.1,0,0.2,0c0.1,0,0.2,0,0.3,0c0.5,0.2,0.6-0.1,0.8-0.5c0.2-0.5,0.5-1,0.8-1.6
					c0,0,0.1-0.1,0.1-0.1c0,0,0-0.1,0-0.1v0c1.2-3,2.4-6,3.6-9c0.1-0.3,0.2-0.5,0.5-0.6c0.3,0.2,0.6,0.4,0.8,0.6
					c0.1,0,0.1,0,0.2,0.1c0.4-0.1,0.7,0.3,1.2,0.3c0.1,0.1,0.3,0.1,0.4,0.2c0.6,0.6,1.4,0.9,2.2,1l0,0c0.4,0.2,0.7,0.4,1.1,0.6h0
					c0.2,0.4,0.5,0.5,0.8,0.4c0.7,0.3,1.3,0.6,2,0.9c0.4-0.1,0.8-0.1,1.3-0.2c0.2-0.1,0.5-0.1,0.7-0.1c-0.2,0-0.4,0-0.7,0.1
					c-0.4,0.1-0.8,0.1-1.3,0.2c1.7,1.6,3.2,1.9,5.4,1c-0.2-0.2-0.4-0.5-0.6-0.7l0,0c0.2,0.2,0.4,0.5,0.6,0.7
					C391.8,178.8,392.1,178.1,392.4,177.5z M342.1,154.4c0,0-0.1,0-0.1,0C342,154.3,342.1,154.3,342.1,154.4z M339,155
					c0.2,0.1,0.4,0.2,0.6,0.3C339.4,155.2,339.2,155.1,339,155z M340.4,155.4C340.4,155.4,340.4,155.4,340.4,155.4
					C340.4,155.4,340.4,155.4,340.4,155.4z M344.2,155.2C344.2,155.2,344.2,155.2,344.2,155.2C344.2,155.2,344.2,155.2,344.2,155.2z
					 M343.7,154.6c-0.1,0-0.3,0-0.4,0.1C343.4,154.6,343.5,154.6,343.7,154.6z M343,157.7c0-0.1,0-0.1,0.1-0.1
					C343.1,157.6,343,157.6,343,157.7z M345.9,155.2c0.1,0,0.1,0,0.2,0.1c0.1,0.1,0.2,0.2,0.4,0.4c-0.1-0.1-0.3-0.2-0.4-0.4
					C346,155.2,346,155.2,345.9,155.2z M346.6,156c-0.2,0-0.4,0-0.6-0.1C346.2,155.9,346.4,156,346.6,156c0.1,0,0.3,0.1,0.4,0.1
					C346.9,156,346.8,156,346.6,156z M348.8,156c-0.1-0.2-0.3-0.4-0.5-0.4C348.4,155.6,348.6,155.7,348.8,156L348.8,156
					c0.3,0.1,0.5,0.2,0.8,0.3C349.3,156.2,349,156.1,348.8,156z M348.9,157c-0.2,0.1-0.5,0.2-0.7,0.3
					C348.4,157.2,348.6,157.1,348.9,157c0.2,0,0.5,0,0.7,0C349.4,157,349.1,157,348.9,157z M350.8,156.6c0.1-0.1,0.3-0.1,0.4-0.1
					C351.1,156.6,350.9,156.6,350.8,156.6z M352,158.3c-0.2-0.1-0.5-0.2-0.7-0.3c0,0-0.1,0-0.1,0.1c-0.1,0-0.1,0.1-0.2,0.2
					c0.1-0.1,0.1-0.1,0.2-0.2c0,0,0.1,0,0.1-0.1l0,0C351.5,158.1,351.8,158.2,352,158.3c0.1,0.1,0.1,0.2,0.2,0.3
					C352.1,158.5,352.1,158.4,352,158.3z M355,159.1c0.1,0.2,0.4,0.3,0.7,0.4C355.5,159.4,355.1,159.3,355,159.1z M355.6,161.7
					L355.6,161.7c0,0.2,0,0.3,0,0.4C355.6,162,355.6,161.9,355.6,161.7z M362,165.1L362,165.1c-1.1-0.6-2.3-1.1-3.4-1.7c0,0,0,0,0,0
					c0,0,0,0,0,0v0C359.8,164,360.9,164.6,362,165.1c0.1,0,0.2,0,0.3,0v0C362.2,165.1,362.1,165.1,362,165.1z M367.3,164
					c0.2,0,0.4,0.1,0.6,0.1C367.6,164,367.5,164,367.3,164c-0.1,0.1-0.1,0.2-0.2,0.2C367.2,164.2,367.2,164.1,367.3,164z
					 M365.8,164.2L365.8,164.2c0,0,0-0.1,0-0.1C365.7,164.1,365.7,164.1,365.8,164.2z M372.9,168.5L372.9,168.5
					c0.1-0.3,0.3-0.5,0.6-0.6C373.2,168,373,168.2,372.9,168.5z M377.7,167.1c0,0,0-0.1,0-0.1C377.7,167,377.7,167,377.7,167.1
					C377.7,167,377.8,167,377.7,167.1C377.8,167,377.7,167,377.7,167.1z M378.6,172.7c0-0.1-0.1-0.2-0.1-0.2
					C378.5,172.6,378.6,172.7,378.6,172.7c0,0.1,0.1,0.1,0.1,0.2C378.7,172.9,378.6,172.8,378.6,172.7z M384.3,175.5
					c0.1,0,0.1,0.1,0.1,0.1C384.4,175.5,384.3,175.5,384.3,175.5z M384.5,176.2c-0.1-0.1,0-0.4-0.1-0.6
					C384.5,175.8,384.3,176.1,384.5,176.2L384.5,176.2z M390.9,178c0.3-0.3,0.1-0.9,0.1-1.3C390.9,177.1,391.2,177.7,390.9,178z"/>
				<path class="st4" d="M305.9,312.2c1.9-4.7,4.3-9.2,6.3-13.8c0.1-0.1,0.1-0.3,0.2-0.4c0.4-0.8,0.7-1.5,1.1-2.3
					c0.2-0.1,0.3-0.3,0.3-0.6c0.3-0.6,0.6-1.1,0.8-1.7c1.2-1.6,1.9-3.4,2.8-5.1c0.5-0.9,1.1-1.7,1.3-2.7c0.2-0.3,0.4-0.7,0.6-1
					c-0.1-0.2-0.1-0.4,0.2-0.4c0.4-0.7,0.7-1.3,1.1-2c-0.2-0.4-0.1-0.6,0.3-0.6c1.2-2.3,2.5-4.5,3.7-6.8c0.1-0.1,0.1-0.3,0.2-0.4
					c0.8-1.5,1.6-2.9,2.4-4.4c0.1-0.5,0.4-0.9,0.7-1.2c0.1-0.4,0.2-0.7,0.5-1c0.7-1.7,1.5-3.3,2.5-4.8c0.1-0.3,0.3-0.5,0.4-0.8
					c0.1-0.1,0.2-0.3,0.3-0.4c1-2.4,2.2-4.6,3.5-6.9c0-0.3,0-0.6,0.3-0.8c1.6-3.3,3.2-6.6,4.7-9.9c0-0.1,0.1-0.3,0.1-0.4
					c0.7-1.9,1.6-3.6,2.6-5.4c0.1-0.1,0.1-0.2,0.2-0.4c0.1-0.2,0.1-0.4,0.2-0.5c3-6.2,6-12.4,9.1-18.5c0.1-0.5,0.3-0.9,0.7-1.2
					c0.4-1.4,1.2-2.6,1.9-3.9c0.1-0.1,0.1-0.2,0.2-0.4c0.2-0.7,0.6-1.2,1-1.8c0.1-0.1,0.1-0.3,0.2-0.4c1.4-2.7,3-5.3,4.5-7.9
					c0.9-1.6,1.8-3.1,2.7-4.7c0.1-0.1,0.1-0.3,0.2-0.4c0.9-2,2-3.9,3.2-5.8c0.1-0.1,0.2-0.2,0.3-0.4c0.9-2.3,2-4.6,3.2-6.7
					c-0.6-0.7-1.6-1-2.4-1.4c-3.3-1.7-6.7-3.2-10.1-4.8c-1.3-0.6-2.2-0.7-2.7,1.2c-0.1,0.2-0.2,0.4-0.3,0.6
					c-1.7,2.4-2.8,5.1-4.1,7.6c-1.9,3.6-3.4,7.5-5.3,11.2c-3.5,6.8-7,13.6-10.7,20.2c-3.5,6.4-7,12.8-10.6,19.2
					c-2.7,4.8-5.4,9.6-7.9,14.6c-3.7,7.3-7.2,14.8-10.8,22.1c-2.8,5.7-5.7,11.3-8.9,16.7c-2.2,3.9-4.5,7.8-6.7,11.7
					c0,2.1,0.8,3.8,2.7,4.9c1,0.6,2,1.2,3,1.8c2.3,1.1,4.6,2.1,7.1,2.5C304.3,313.9,305.4,313.5,305.9,312.2z M314.4,281.2
					c-0.2-0.3-0.5-0.4-0.9-0.5c-0.4,0-0.5,0.2-0.5,0.6c0,0.2,0,0.4-0.2,0.4c-0.3,0-0.4-0.2-0.4-0.5c0-0.4,0.1-0.8,0.4-1
					c0.5-0.3,1-0.2,1.4,0c0.5,0.3,0.9,0.6,0.9,1.1c0,0.4-0.3,0.8-0.7,1c-0.2,0.1-0.4,0.1-0.5,0c-0.2-0.2,0-0.4,0.2-0.5
					C314.4,281.7,314.6,281.5,314.4,281.2z M316.2,278.3c0.2,0.2,0.6,0.3,0.3,0.7c-0.2,0.2-0.5,0-0.7-0.1c-0.2-0.1-0.3-0.2-0.4-0.3
					c-0.1-0.1-0.2-0.1-0.4-0.1c-0.4-0.1-0.9-0.2-0.8-0.6c0.1-0.6,0.5-0.1,0.8-0.1c0.5-0.1,0.6-0.3,0.3-0.7c-0.2-0.2-0.6-0.3-0.3-0.7
					c0.2-0.3,0.6,0,0.8,0.1c0.4,0.1,0.7,0.4,1.1,0.6c0.2,0.1,0.4,0.2,0.4,0.5c-0.1,0.4-0.4,0.3-0.6,0.2c-0.2-0.1-0.4-0.1-0.6,0.1
					C315.9,277.9,316,278.1,316.2,278.3z M315.9,279.9c0,0-0.1,0.3-0.1,0.3c-0.8-0.1-1.6-0.5-2.2-1c0,0,0-0.1-0.1-0.4
					C314.5,278.8,315.3,279.2,315.9,279.9z M318.4,274.9c-0.4-0.4,0.2-0.8-0.1-1.2c-0.4,0-0.4,0.6-0.8,0.5c-0.4-0.3,0.4-0.8-0.1-1.1
					c-0.5,0-0.6,0.7-1.2,0.7c0.3-0.7,0.4-1.6,1-1.5c0.7,0.1,1.8,0.3,2.1,1.1C319.4,274,319,274.6,318.4,274.9z M320.8,269.9
					c-0.5-0.3-1-0.5-1.5-0.8c-0.4-0.2-0.8-0.4-0.3-0.9c0.7,0.3,1.4,0.7,2.1,1c0.2,0.1,0.3,0.2,0.3,0.4
					C321.3,269.9,321,269.9,320.8,269.9L320.8,269.9z M321.4,268.5c-0.2-0.1-0.4-0.2-0.6-0.3c-0.7-0.3-1.3-0.8-0.9-1.6
					c0.4-0.8,1.1-0.6,1.8-0.3c0.4,0.1,1.1,0.3,0.9,0.8c-0.2,0.4-0.7-0.1-1.1-0.2c-0.1,0-0.1-0.1-0.2-0.1c-0.3-0.1-0.6-0.2-0.8,0.1
					c-0.2,0.3,0,0.6,0.3,0.7c0.3,0.2,0.6,0.3,0.9,0.5c0.2,0.1,0.4,0.2,0.3,0.4C321.8,268.7,321.6,268.6,321.4,268.5z M323.5,264.7
					c-1.1,0.1-1.1,0.5-0.4,1.4c-0.7-0.3-1.2-0.6-1.8-0.9c-0.2-0.1-0.4-0.2-0.4-0.5c0-0.2,0.3-0.2,0.5-0.2c0.3,0,0.8,0.1,0.9-0.3
					c0.1-0.5-0.5-0.4-0.8-0.7c0.2-0.5,0.6-0.4,0.9-0.2c0.4,0.2,0.7,0.4,1.1,0.6C323.9,264.1,324.3,264.6,323.5,264.7z M319.1,270.6
					c-0.2-0.1-0.2-0.2-0.3-0.2c-0.3-0.1-0.8-0.2-0.5-0.7c0.2-0.4,0.6-0.1,0.9,0.1c0.5,0.2,0.9,0.4,1.4,0.7c0.4,1.3-1,0.5-1.4,1.1
					c0.1,0.1,0.3,0.2,0.4,0.3c0.2,0.1,0.6,0.3,0.4,0.6c-0.2,0.3-0.5,0.1-0.7,0c-0.6-0.4-1.5-0.5-1.8-1.3
					C317.8,270.6,318.5,270.9,319.1,270.6z M344,222.5c-0.1,0.2-0.2,0.3-0.3,0.5C343.8,222.8,343.9,222.6,344,222.5L344,222.5z
					 M338.5,233.2c-0.1,0.1-0.2,0.1-0.3,0.2c0.2,0.1,0.4,0.2,0.4,0.4c0-0.2-0.2-0.3-0.4-0.4C338.3,233.3,338.4,233.3,338.5,233.2z
					 M338.2,233.4C338.2,233.4,338.1,233.4,338.2,233.4L338.2,233.4C338.1,233.4,338.2,233.4,338.2,233.4z M337.9,235.4L337.9,235.4
					c-0.5,0-0.9,0.1-1.2,0.3C337,235.5,337.4,235.4,337.9,235.4z M351.5,206.7c0,0-0.1,0.3-0.2,0.4l0,0c-0.1,0-0.2-0.1-0.2-0.1
					c0.1,0,0.2,0.1,0.2,0.1C351.4,207,351.5,206.8,351.5,206.7z M325,258.4c0.1,0.1,0.2,0.1,0.3,0.2c0.7,0.4,1.1,0.9,0.8,1.7
					c-0.4,0.9-1.1,0.4-1.6,0.3c-0.2,0-0.4-0.2-0.6-0.3c0,0.3,0,0.6,0,0.9c0.6,0.4,1.7,0.6,1,1.8c-0.1,0.2-0.2,0.6-0.6,0.4
					c-0.3-0.1-0.1-0.4,0-0.6c0.1-0.2,0.2-0.4-0.1-0.6c-0.2-0.1-0.3,0.1-0.5,0.2c-0.1,0.1-0.3,0.3-0.4,0.4l0,0
					c-0.5-0.3,0.4-0.9-0.1-1.2c-0.4-0.2-0.4,0.7-0.9,0.6c-0.1-1.4,0.4-1.8,1.6-1.2c0-0.3,0-0.6,0-0.9
					C323.4,259.1,323.7,258.6,325,258.4z M353.1,202.4c0-0.2,0-0.4-0.1-0.6C353.1,201.9,353.1,202.2,353.1,202.4z M356.5,193.7
					L356.5,193.7c-0.2,0.1-0.4,0.1-0.5,0.3C356.2,193.8,356.4,193.7,356.5,193.7z M336.2,230.9c-0.1,0.1-0.1,0.2-0.1,0.4
					C336.1,231.1,336.2,231,336.2,230.9z M340.7,223.4L340.7,223.4c0.3-0.5,0.6-1.1,0.9-1.6c0-0.1,0-0.2,0-0.2c0,0.1,0,0.2,0,0.2
					C341.2,222.3,340.9,222.8,340.7,223.4z M351.9,202.6c-0.2,0.2-0.4,0.2-0.5,0.1C351.5,202.8,351.7,202.8,351.9,202.6L351.9,202.6
					z M353.1,202.6L353.1,202.6c0.1,0.1,0.1,0.1,0.2,0.2C353.2,202.7,353.1,202.6,353.1,202.6c-0.4-0.1-0.7-0.1-1.1-0.2
					C352.4,202.4,352.7,202.5,353.1,202.6z M349.1,210.4L349.1,210.4c0,0,0-0.1,0.1-0.1C349.2,210.4,349.2,210.4,349.1,210.4z
					 M348.3,210.1c0.1,0,0.1,0,0.2,0l0,0C348.5,210.1,348.4,210.1,348.3,210.1z M333.3,238.8c0-0.1,0.1-0.2,0.2-0.3l0,0
					C333.4,238.6,333.4,238.7,333.3,238.8z M330.6,243.8L330.6,243.8c0.3-0.5,0.5-0.9,0.8-1.4C331.1,242.9,330.9,243.4,330.6,243.8z
					 M332,241.4c0.2-0.5,0.4-1.1,1-1.3c0.1-0.3,0.1-0.7,0.2-1c-0.1,0.3-0.2,0.7-0.2,1l0,0C332.4,240.3,332.2,240.9,332,241.4z
					 M349.9,207.9c-0.2,0-0.4,0-0.6-0.1C349.5,207.9,349.7,207.9,349.9,207.9L349.9,207.9z M320.7,263.8L320.7,263.8L320.7,263.8
					L320.7,263.8z M333.7,240.1c-0.1,0.1-0.3,0.1-0.4,0C333.4,240.2,333.6,240.2,333.7,240.1z M312,283.5c0.5-0.5-0.6-0.6-0.4-1.1
					c0.7-0.1,1.2,0.3,1.7,0.6c0.3,0.1,0.7,0.2,0.7,0.5c0,0.5-0.4,0.2-0.7,0.3c-0.3,0-0.2,0.3-0.1,0.4c0.1,0.3,0.3,0.6-0.2,1.1
					c-0.3-0.9-0.7-1.3-1.6-1c-0.3,0.1-0.7,0-0.8-0.5C311.2,283.5,311.7,283.8,312,283.5z M309.6,286L309.6,286L309.6,286
					C309.6,286,309.6,286,309.6,286C309.6,286,309.6,285.9,309.6,286c0-0.1,0-0.1,0.1-0.1c0.4-0.7,0.9-1.1,1.7-0.8
					c0.5,0.2,1.1,0.4,1.2,1c0.1,0.7-0.4,1-1,1.3C310.7,287.4,310.1,286.8,309.6,286L309.6,286L309.6,286z M309.4,287.1
					c0-0.2,0-0.5,0-0.7C309.4,286.6,309.4,286.8,309.4,287.1c0.5,0.4,1.1,0.7,1.7,0.9l0,0c0.7,0.5,0.3,1,0,1.4
					c-0.4,0.6-1,0.5-1.5,0.1c-0.1,0.1-0.1,0.2-0.2,0.3c0.1-0.1,0.1-0.2,0.2-0.3c-0.3-0.7-0.9-0.3-1.3-0.4c-0.1-1.1,1.1-0.3,1.3-0.9
					C309.7,287.8,308.3,287.7,309.4,287.1z M309.6,292.2c-1-0.3-1.2-1.4-2.2-1.8c0.1-0.1,0.2-0.3,0.4-0.4c0.4,0.2,0.8,0.5,1.2,0.4
					l0,0c0.5,0.1,1-0.1,1.4,0.2c-0.2,0.5-1.8,0.4-0.6,1.4C309.8,292.1,309.7,292.3,309.6,292.2z"/>
			</g>
			<g>
				<path class="st1" d="M285.6,226c-0.2-0.6,0-1.2,0.2-1.8c-0.2-0.3-0.1-0.5,0-0.8c-0.1-0.8,0-1.5,0.2-2.2c0-0.2,0.1-0.5,0.1-0.7
					c-0.2-0.3,0-0.6,0.1-0.9c0-0.6,0.3-1.3-0.5-1.7c-0.4,0.5-0.4,1.1-0.4,1.7c-0.2,2.1-0.1,4.3-0.9,6.3c-0.3,0.9-0.8,1.2-1.7,0.9
					c-1.2-0.5-2.4-0.6-3.6-0.9c-0.4-0.1-0.8-0.1-1.1-0.5c-0.2,0-0.3-0.1-0.5-0.1c-0.2,0-0.4,0.1-0.6,0.1c-1.4-0.2-2.8-0.6-4.2-0.7
					c-0.7-0.1-0.9-0.7-0.9-1.4c0-0.3,0.3-0.7-0.1-1c-0.7,0.8-0.9,2-0.8,2.9c0.3,3.5-0.3,6.9-1.5,10.2c-1.1,2.9-2.6,5.5-3.8,8.3
					c-0.7,1.7-1.5,3.3-2.2,5c-1.2,3.2-1.9,6.5-2.8,9.8c-0.9,3.3-1.4,6.6-2.2,9.9c-0.5,2.1-0.7,4.1,0.3,6.2c0.2,0.4,0.3,0.8,0.6,1.1
					c0-1-0.5-1.9-0.7-2.9c-0.1-0.6-0.1-0.8,0.6-0.7c1.3,0.2,2.7-0.5,3.1-1.5c0.3-0.9,0.6-1.9,0.8-2.9c0.3-1.6,0.6-3.1,1-4.7
					c0.5-2,1-4,1.2-6.1c0.2-1.8,1.1-2.6,2.9-2.3c2,0.4,3.9,0.8,5.9,1.2c1.5,0.3,1.9,1,1.6,2.5c-0.9,4.5-1.9,9.1-2.9,13.6
					c-0.2,1.1,0.1,1.9,0.8,2.6c0.4,0.4,0.9,0.5,1.4,0.7c0.6,0.2,0.7,0.5,0.3,1.1c-0.9,1.3-2,2.3-3.6,2.7c-1.1,0.2-2.1,1-3.2,0.8
					c-3.3-0.4-6.5-1.3-8.7-4.1c-0.1-0.1-0.3-0.1-0.4-0.2c0,0.4,0.4,0.7,0.6,1c1.6,1.1,2.8,2.7,4.6,3.5c3.3,1.5,6.6,2.2,10.1,0.5
					c2.3-1.1,3.5-3,4-5.4c0.8-4.2,1.8-8.3,2.5-12.4c0.3-1.9,0.8-3.8,0.9-5.7c0-0.1,0-0.3,0.1-0.4c-0.1-0.8,0.2-1.5,0.4-2.2
					c0-0.1,0-0.2,0-0.4c-0.4-0.4-0.2-0.9-0.2-1.4c0-2.1,0.1-4.2,0.2-6.3c0-0.1,0-0.2,0-0.4c-0.1-0.2-0.1-0.4,0-0.6
					c0-0.4,0-0.7,0-1.1c-0.1-0.1-0.1-0.3,0-0.4c0-0.2,0-0.5,0.1-0.7c-0.3-0.3-0.3-0.7-0.2-1.1c-0.3-1-0.2-2,0.1-3
					c-0.2-0.5-0.1-1,0.1-1.5c0-0.1,0-0.2,0-0.3c0-0.2,0.1-0.4,0.1-0.6c0-0.5,0.1-1,0.3-1.4c0.1-0.5-0.1-1,0.6-1.2c0-0.1,0-0.3,0-0.4
					c0.2-1.4,0.8-2.7,1.8-3.8c0-0.2,0-0.4,0.1-0.5c-0.2-0.3-0.1-0.5,0.1-0.8c0-0.2,0.1-0.5,0.1-0.7c-0.1-0.2-0.1-0.4,0-0.6
					C285.4,227,285.5,226.5,285.6,226z M271,251.8c-0.3,0-0.5,0-0.6-0.3c-0.5-0.1-1-0.2-1.4,0.1c-0.6,0.3-0.9,0-1.3-0.3
					c-0.4-0.4-0.6-0.9-0.3-1.4c0.6-1.1,0.7-2.4,1.1-3.6c0.8-2.1,1.4-4.3,2.3-6.4c0.4-1,1.2-1.5,2.1-1.4c1.2,0.2,2.5,0.5,3.7,0.8
					c0.9,0.2,1.6,1.1,1.5,1.9c-0.3,3.4-0.7,6.9-1.1,10.3c-0.1,1-0.8,1.7-1.8,1.6c-0.7,0-1.4-0.2-2-0.4c-0.5-0.1,0.1-0.6-0.2-0.9
					c-0.1-0.1-0.1-0.1-0.2-0.2c-0.1,0.2-0.1,0.4-0.4,0.3C271.9,252.2,271.4,251.9,271,251.8z"/>
				<g>
					<path class="st2" d="M285.2,219.6c0-0.6,0-1.2,0.4-1.7c0.3-1.4-0.2-2.3-1.5-2.9c-0.3-0.1-0.5-0.3-0.8-0.4
						c-0.8-0.2-1.6-0.1-2.2-0.6c-0.4-0.1-0.8,0.2-1.1-0.2c-0.4-0.3-0.9-0.3-1.3-0.3c-0.5,0.1-1,0-1.4-0.1c-1.5-0.3-2.5,0.6-3,1.9
						c-0.6,2-1.4,4-2.1,6.1c-0.1,0.4-0.2,0.8-0.5,1.1c0.4,0.3,0.1,0.7,0.1,1c-0.1,0.7,0.1,1.3,0.9,1.4c1.4,0.1,2.8,0.5,4.2,0.7
						c0.2,0,0.4-0.1,0.6-0.1c0.2,0,0.3,0.1,0.5,0.1c0.3,0.3,0.7,0.4,1.1,0.5c1.2,0.3,2.4,0.4,3.6,0.9c0.9,0.3,1.4,0,1.7-0.9
						C285.1,223.8,285.1,221.7,285.2,219.6z"/>
				</g>
				<g>
					<g>
						<polygon class="st2" points="259.4,275.7 259.4,275.7 259.4,275.7 						"/>
						<path class="st2" d="M275.1,275.3c-0.5-0.2-1-0.3-1.4-0.7c-0.7-0.7-1.1-1.5-0.8-2.6c1-4.5,1.9-9,2.9-13.6
							c0.3-1.5-0.2-2.2-1.6-2.5c-2-0.4-3.9-0.8-5.9-1.2c-1.8-0.3-2.6,0.5-2.9,2.3c-0.3,2-0.7,4.1-1.2,6.1c-0.4,1.5-0.7,3.1-1,4.7
							c-0.2,1-0.4,2-0.8,2.9c-0.3,1-1.8,1.7-3.1,1.5c-0.7-0.1-0.7,0.1-0.6,0.7c0.2,1,0.7,1.9,0.7,2.9c0.1,0.1,0.3,0.1,0.4,0.2
							c2.2,2.8,5.4,3.7,8.7,4.1c1.1,0.2,2.1-0.6,3.2-0.8c1.6-0.3,2.7-1.4,3.6-2.7C275.7,275.9,275.6,275.6,275.1,275.3z"/>
					</g>
				</g>
				<g>
					<path class="st2" d="M277,251.5c0.4-3.4,0.7-6.8,1.1-10.3c0.1-0.8-0.6-1.7-1.5-1.9c-1.2-0.3-2.4-0.6-3.7-0.8
						c-0.9-0.2-1.7,0.3-2.1,1.4c-0.9,2.1-1.5,4.3-2.3,6.4c-0.5,1.2-0.5,2.4-1.1,3.6c-0.3,0.5-0.1,1,0.3,1.4c0.4,0.3,0.7,0.6,1.3,0.3
						c0.4-0.2,1-0.2,1.4-0.1c0.1,0.2,0.3,0.3,0.6,0.3c0.4,0.1,0.9,0.4,1.4,0.2c0.3,0.1,0.3-0.1,0.4-0.3c0.1,0.1,0.2,0.1,0.2,0.2
						c0.2,0.3-0.3,0.7,0.2,0.9c0.7,0.2,1.4,0.4,2,0.4C276.2,253.2,276.9,252.6,277,251.5z"/>
				</g>
				<path class="st6" d="M297.9,144.6c0.2-0.6-0.1-0.8-0.7-0.9c-1.4-0.3-2.8-0.6-4.2-1c-0.3,0.4-0.5,0.9-0.4,1.4
					c0.5,1.3,0.1,2.7,0,4c-0.1,2.9-0.4,5.8-0.6,8.7c-0.1,0.9-0.5,1.8-0.3,2.7c0,0.2-0.1,0.3-0.1,0.5c0.1,0.2,0.1,0.3-0.1,0.4
					c0,0.2-0.1,0.5-0.1,0.7c0.2,0.7,0,1.4-0.4,2c-0.2,1.1-0.5,2.3-0.7,3.4c0.1,0.9-0.1,1.7-0.5,2.5c-0.2,0.8-0.3,1.5-0.5,2.3
					c0.1,0.8,0,1.6-0.5,2.4c-1.1,4.9-2.1,9.9-3.2,14.8c0,0.2,0,0.3-0.1,0.5c-0.3,1.6-0.7,3.1-1,4.7c0,1.1-0.4,2.2-0.6,3.3
					c-0.3,1.4-0.4,2.8-1,4.1c0,0-0.1,0.1,0,0.1c0.1,0.4,0,0.8-0.3,1.2c-0.7,3.1-1.3,6.2-2,9.2c0,0.3,0,0.5-0.2,0.8
					c-0.1,0.4-0.3,0.8-0.3,1.3c0.3,0.4,0.7,0.1,1.1,0.2c0.7-3.3,1.4-6.6,2.1-9.9c1-4.4,2-8.8,2.9-13.2c1.4-6.3,2.7-12.7,4-19
					c0.1-0.4,0.1-0.8,0.2-1.2c0.4-0.6,0.4-1.4,0.6-2.1c0.7-3.4,1.3-6.7,2.1-10.1c0.5-2.2,1.5-4.2,2.3-6.3c0.7-2,1.4-4,2.3-6
					C297.8,145.7,297.8,145.1,297.9,144.6z"/>
				<g>
					<g>
						<path class="st1" d="M291,163.1c0.4-0.6,0.6-1.3,0.4-2c0,0.1-0.1,0.2-0.1,0.2c0-0.1,0.1-0.2,0.1-0.2c0-0.2,0.1-0.5,0.1-0.7
							c0.2-0.1,0.2-0.2,0.1-0.4c0,0-0.1,0.1-0.1,0.1c0,0,0.1-0.1,0.1-0.1c0-0.2,0.1-0.3,0.1-0.5c-0.1-0.9,0.3-1.8,0.3-2.7
							c0.2-2.9,0.5-5.8,0.6-8.7c0.1-1.3,0.5-2.7,0-4c-0.5,0.8-0.6,1.6-0.5,2.5c0.1,0.2,0.1,0.3-0.2,0.4c0.2,1.1-0.1,2.2-0.2,3.2
							c-0.2,1.3-0.2,2.7-0.6,4c0,0.1,0,0.2-0.1,0.4c-0.1,1.2-0.2,2.3-0.6,3.4c0.1,0.2,0,0.4-0.1,0.6c-0.6,2.9-1.2,5.8-1.8,8.8
							c-0.4,2.1-0.7,4.1-1.4,6.1c0.3,0.5,0,0.9-0.2,1.3c-0.3,1.6-0.6,3.1-1,4.7c0,0.1,0,0.2-0.1,0.4c-0.1,0.3-0.1,0.6-0.2,0.9
							c0,0.1-0.1,0.3-0.1,0.4c0,0.7-0.2,1.3-0.4,2c0,0.1,0,0.3-0.1,0.4c-0.3,2.6-1.1,5.1-1.6,7.6c-0.2,1-0.4,2-0.7,3
							c0,0.1,0,0.3-0.1,0.4c-0.4,2.1-0.8,4.2-1.4,6.3c0,0.2-0.1,0.3-0.1,0.5c-0.4,1.9-0.9,3.8-1.3,5.8c0,0.1,0,0.3-0.1,0.4
							c-0.1,1.6-0.6,3.1-1,4.7c-0.1,0.5-0.2,1-0.3,1.4c0.5,0,0.9,0,1.3,0.3c0-0.5,0.1-0.9,0.3-1.3c0.2-0.2,0.2-0.5,0.2-0.8
							c-0.1,0.1-0.2,0.2-0.3,0.3c0-0.1,0.1-0.2,0.3-0.3c0.7-3.1,1.3-6.2,2-9.2c0.3-0.3,0.3-0.8,0.3-1.2c-0.2,0.3-0.3,0.6-0.3,0.9
							c0-0.3,0.1-0.6,0.3-0.9c0-0.1,0-0.1,0-0.1c0.6-1.3,0.7-2.7,1-4.1c0.3-1.1,0.6-2.2,0.6-3.3c0,0-0.1,0-0.1,0.1c0,0,0,0,0.1-0.1
							c0.3-1.6,0.7-3.1,1-4.7c0-0.2,0-0.3,0.1-0.5c-0.2,0.1-0.2,0.2-0.2,0.3c0-0.1,0.1-0.2,0.2-0.3c1.1-4.9,2.1-9.9,3.2-14.8v0
							c0.4-0.7,0.6-1.5,0.5-2.4c0.2-0.8,0.3-1.5,0.5-2.3c0.4-0.8,0.6-1.6,0.5-2.5c0,0.1-0.1,0.2-0.1,0.3c0-0.1,0.1-0.2,0.1-0.3
							C290.5,165.4,290.8,164.2,291,163.1z"/>
						<path class="st1" d="M297.4,149.9c0.8-2,0.7-4.2,1.2-6.3c0-0.1,0-0.1,0.1-0.2c-0.1-1.6,0.3-3.1,0.5-4.6
							c0.2-1.4,0.2-1.4-1.2-1.7c-0.7-0.2-1.4-0.3-2.1-0.5c-0.6-0.2-0.8,0.1-1,0.6c-0.4,1.1-0.5,2.4-1.2,3.4c0,0.1-0.1,0.2-0.1,0.4
							c-0.1,0.5-0.2,1.1-0.3,1.6c1.4,0.3,2.8,0.7,4.2,1c0.6,0.1,0.8,0.4,0.7,0.9c-0.1,0.5-0.2,1.1-0.4,1.6c-0.9,2-1.5,4-2.3,6
							c-0.8,2.1-1.8,4.1-2.3,6.3c-0.8,3.3-1.4,6.7-2.1,10.1c-0.1,0.7-0.2,1.5-0.6,2.1c-0.1,0.4-0.1,0.8-0.2,1.2
							c-1.3,6.3-2.7,12.7-4,19c-0.9,4.4-1.9,8.8-2.9,13.2c-0.7,3.3-1.4,6.6-2.1,9.9c0.7,0.5,1.5,0.4,2.2,0.6
							c0.5-1.2,0.6-2.4,0.9-3.7c0.1-0.4,0.2-0.7,0.3-1c0-0.1,0.1-0.2,0.1-0.4c-0.1-0.3,0.1-0.5,0.2-0.8c-0.2-0.4-0.1-0.8,0.1-1.2
							c0.6-2.8,1.2-5.6,1.8-8.4c-0.1-0.2-0.1-0.4,0.1-0.6c0.1-0.6,0.2-1.2,0.4-1.8c0-0.1,0.1-0.2,0.1-0.3c0-1.1,0.3-2.2,0.6-3.2
							c-0.1-0.3,0-0.4,0.3-0.5c-0.1-0.5,0-0.9,0.1-1.4c0.6-2.6,1.1-5.2,1.7-7.7c0-0.1,0.1-0.3,0.1-0.4c0.2-1.8,0.6-3.5,1.1-5.2
							c0-0.2,0-0.4,0.1-0.6c0.5-2.4,0.9-4.8,1.5-7.2c0-0.1,0-0.2,0.1-0.4c0.2-1,0.2-2.1,0.8-3.1c-0.1-0.1-0.1-0.2,0-0.4
							c0-0.2-0.1-0.3,0-0.4c0.6-2.7,1.1-5.4,1.7-8.2c0-0.2,0.1-0.4,0.1-0.6c0-0.1,0.1-0.2,0.1-0.3c0.1-0.2,0.1-0.5,0.2-0.7
							c0.3-0.8,0.6-1.6,0.9-2.4c-0.1-0.2-0.1-0.4,0-0.5C296.8,152,297,150.9,297.4,149.9z"/>
					</g>
				</g>
			</g>
			<g>
				<path class="st1" d="M251.1,292.4c-4.2-7.5-5.7-15.8-7.2-24.1c-1.3-7.3-2.7-14.7-4.2-21.9c-0.8-3.8-1.3-7.6-2.1-11.5
					c-0.6-3.3-1.4-6.5-2.1-9.8c-0.4-1.9-0.4-3.9-0.8-5.8c-2.2-12-4.3-24-6.8-35.9c-0.8-4-1.4-8.1-2.2-12.2c-0.6-3.1-0.1-6.1,1-9
					c0.3-0.9,1.1-1.1,1.5-1.8c1.9-3.5,1.2-6.9,0.2-10.4c0.1,2.6,1,5.2,0,7.9c-0.9,2.5-2.3,4.5-5,5.3c-0.1,0-0.2,0.1-0.4,0.2
					c-0.3,0.1-1,0.4-1.9,0.5c-0.1,0-0.6,0.1-1.2,0.1c-4,0.1-6.9-0.9-6.9-0.9c-1.1-0.4-2.8-1.2-4.7-2.8c-2.6-2.1-3.4-4.8-2.6-7.9
					c0.7-2.8,1.7-5.4,3.7-7.6c0.6-1,1.5-1.5,2.8-1.2c0,0,0,0,0,0c-3.3,3.5-4.4,7.7-2.9,9.9c1.6,2.4,6.5,2.4,9.3,2.4
					c0.6,0,1.1,0,1.4,0c1-0.3,2-0.6,3-0.9c0.9-1.5,0.8-3.3,0.9-5c0.1-1.9,0.1-3.9,0.2-5.8c-1.9,0-2.7,0.8-2.5,2.8
					c0.1,1.8-0.1,3.7-0.3,5.5c-0.2,1.9-0.6,2.3-0.7,2.4c-0.2,0.2-0.7,0.6-3.4,0.6c-2.1,0-3.2,0-4.6-0.6c-1.2-0.5-2.1-0.8-2.7-1.7
					c-1.4-2-0.4-5.3,0.8-7.1c0.6-1,1.8-2.3,1.8-2.5c0,0,0,0,0.1,0c-1.3-0.9-3.1-0.6-4.6,0.8c-3.2,3-4.7,6.9-4.9,11.2
					c-0.1,1.6,1.1,3.1,2.1,4.4c0.9,1.2,1.9,2.4,3.2,3.3c1.6,1.2,2.7,2.9,3.4,4.9c0.1,0.5,0.3,1.3,0.6,2.3c0.4,1.2,0.5,1.7,0.9,2.9
					c0,0,0.3,1.1,0.6,2.5c2.6,11.6,3.8,21.3,3.8,21.3c2,11.4,4,22.7,5.9,34.1c1.3,7.6,2.8,15.1,4,22.7c1.2,7.8,2.8,15.5,4.2,23.3
					c0.8,4.9,1.2,9.7,0.2,14.6c-0.5,2.5-0.3,5,0.7,7.3c1.2,2.8,3.2,4.7,6.5,5.2c1.1,0.1,2.2,0.7,3.3,0.8c3.5,0.3,6.3-1,8.3-3.8
					C252.4,298.8,252.9,295.5,251.1,292.4z"/>
				<path class="st6" d="M210.1,143.8c-1.5,1.8-3.6,4.8-4.3,8.7c-0.5,2.4-0.1,3.7,0.1,4.4c0.4,1.3,1.3,2.4,2.5,3.5
					c3.9,3.2,8.3,4.2,13.2,3.5c0.9,0,2.5-0.2,4.1-1.3c2.7-1.9,3.1-5.1,3.4-6.8c0.1-1,0.4-3.9-1.1-7.1c-1-2-2.9-4.6-3.8-4.3
					c-1.5,0.6,1.3,8.5-1.6,10.4c-0.4,0.3-1.8,1-3.5,1.1c-0.2,0-0.1,0-1.4,0c-2.5-0.1-3,0-3.9-0.2c-0.6-0.1-1.1-0.2-1.8-0.5
					c-0.6-0.2-2.3-1-3-2.7c-0.4-1.2-0.1-2.2,0.3-3.7c0.2-0.6,0.5-1.8,1.5-3.1c0.8-1.2,1.6-1.7,1.4-2
					C212.1,143.5,211.7,143.4,210.1,143.8z"/>
				
					<ellipse transform="matrix(0.9936 -0.1133 0.1133 0.9936 -31.9584 29.329)" class="st6" cx="242" cy="295.8" rx="3.6" ry="3.6"/>
			</g>
		</g>
	</g>
	<path class="st6" d="M187.9,196.3c-16.8,13.3-33.6,26.5-50.4,39.8v76.2h105.3c0-25.4,0-50.8,0-76.2
		C224.5,222.8,206.2,209.5,187.9,196.3z M199.2,235.2h-26.9c-3.5,0-6.4-2.9-6.4-6.4c0-3.5,2.9-6.4,6.4-6.4h26.9
		c3.5,0,6.4,2.9,6.4,6.4C205.6,232.4,202.7,235.2,199.2,235.2z"/>
	<g>
		<g>
			<path class="st1" d="M244.6,248v-12.8l-52.3-37.8l114.3,0.2l0-3.3l-118.9-0.1L136,235.1l-0.2,0.2V314h227.1v-66H244.6z
				 M241.1,236.9v73.6H139.2v-73.7l48.7-38.4L241.1,236.9z"/>
			<ellipse class="st1" cx="149.9" cy="253.5" rx="2.1" ry="2.5"/>
			<ellipse class="st1" cx="229.5" cy="253.9" rx="2.1" ry="2.5"/>
			<ellipse class="st1" cx="149.8" cy="303" rx="2.1" ry="2.5"/>
			<ellipse class="st1" cx="229.5" cy="303.3" rx="2.1" ry="2.5"/>
			<path class="st1" d="M199.2,237.1h-26.9c-4.5,0-8.2-3.7-8.2-8.2c0-4.5,3.7-8.2,8.2-8.2h26.9c4.5,0,8.2,3.7,8.2,8.2
				C207.4,233.4,203.7,237.1,199.2,237.1z M172.3,224.4c-2.5,0-4.5,2-4.5,4.5s2,4.5,4.5,4.5h26.9c2.5,0,4.5-2,4.5-4.5
				s-2-4.5-4.5-4.5H172.3z"/>
		</g>
	</g>
</g>
<g id="Overcurve">
	<path class="st5" d="M107.2,188.6c-0.8-0.3-1.5-0.7-2.3-1c2-4.3,4-8.6,6-12.9c0.8,0.3,1.5,0.6,2.3,0.9
		C111.2,180,109.2,184.3,107.2,188.6z"/>
	<path class="st5" d="M213.5,154.6c-0.5-0.6-1.1-1.2-1.6-1.9c3.2-2.8,6.5-5.6,9.7-8.3c0.2,0.9,0.4,1.9,0.5,2.8
		C219.3,149.6,216.4,152.1,213.5,154.6z"/>
	<g>
		<path class="st5" d="M228.6,143.5c0-1.9-1.5-3.4-3.4-3.4c-1.9,0-3.4,1.5-3.4,3.4c0,1.9,1.5,3.4,3.4,3.4
			C227.1,146.9,228.6,145.4,228.6,143.5"/>
		<path class="st5" d="M225.3,148.8c-2.9,0-5.2-2.3-5.2-5.2s2.3-5.2,5.2-5.2s5.2,2.3,5.2,5.2S228.1,148.8,225.3,148.8z M225.3,142
			c-0.8,0-1.5,0.7-1.5,1.5c0,0.8,0.7,1.5,1.5,1.5c0.8,0,1.5-0.7,1.5-1.5C226.7,142.7,226.1,142,225.3,142z"/>
	</g>
</g>
<g id="Hexagone">
	<path class="st1" d="M245.5,0L0,141.7v283.5l245.5,141.7L491,425.2V141.7L245.5,0z M474.2,415.5l-228.7,132l-228.7-132V151.4
		l228.7-132l228.7,132V415.5z"/>
</g>
<g id="Text">
	<path class="st2" d="M186.5,372.6v-7.5h7c4.9,0,10.1-1.3,10.2-5.8c0-2.8-2.2-6.5-10-6.5c-4.3,0-10.1,1.5-10.1,6h-9.2
		c0-10.5,10.4-14.3,19.4-14.3c9.2,0,19,4.4,19.1,14.8c0,3.8-2.5,8.3-6.7,9.6c4.6,1.5,7.9,6.1,7.9,10.2c0,11.9-11.2,15.4-20.5,15.4
		c-9.2,0-19.8-3.9-19.8-14.9h9.2c0,5,6.7,6.7,10.7,6.7c4.6,0,10.8-1.9,10.8-7.1c0-2.9-1.6-6.5-10.3-6.5H186.5z"/>
	<g>
		<g>
			<path class="st1" d="M94.9,359.6l0.6,4c2.6-4.2,6.2-4.9,9.6-4.9c3.5,0,6.9,1.4,8.8,3.3l-3.8,7.4c-1.7-1.5-3.3-2.2-6.1-2.2
				c-4.4,0-8.5,2.4-8.5,8.7v18h-8.5v-34.2H94.9z"/>
			<path class="st1" d="M125.5,359.4v41.6c0,8.5-3.7,13.9-11.4,13.9c-2.5,0-5.1-0.7-7.6-2.3l3.1-6.6c1.5,0.7,2.8,1,4.1,1
				c2.8-0.1,3.4-2.3,3.4-6v-41.6H125.5z M116.4,349.9c0,6.6,10,6.6,10,0C126.4,343.3,116.4,343.3,116.4,349.9z"/>
			<path class="st1" d="M168.3,345.3v48.5h-7.9l-0.6-4.7c-2.6,4.1-6.9,5.5-11,5.5c-10.1,0-17.6-6.7-17.6-17.9
				c0-11.8,7.4-17.9,17.4-17.9c3.6,0,9.2,1.9,11.2,5.5v-18.9H168.3z M139.6,376.7c0,6,4.3,10.1,9.7,10.1c5.3,0,9.9-3.9,9.9-10.1
				c0-6-4.6-10-9.9-10C143.9,366.7,139.6,370.5,139.6,376.7z"/>
			<path class="st1" d="M233,349.9v9.7h9.4v7.3h-9.5v14.8c0,3.3,1.8,4.9,4.4,4.9c1.3,0,2.8-0.4,4.1-1l2.4,7.2c-2.4,1-4.4,1.4-7,1.5
				c-7.4,0.3-12.3-4-12.3-12.5v-14.8h-6.4v-7.3h6.4v-8.8L233,349.9z"/>
			<path class="st1" d="M282.7,376.7c0,9.9-6.7,17.8-17.8,17.8c-11.1,0-17.8-8-17.8-17.8c0-9.8,6.8-17.8,17.7-17.8
				C275.7,358.9,282.7,366.9,282.7,376.7z M255.6,376.7c0,5.2,3.1,10.1,9.3,10.1s9.3-4.9,9.3-10.1c0-5.1-3.6-10.1-9.3-10.1
				C258.8,366.6,255.6,371.6,255.6,376.7z"/>
			<path class="st1" d="M322.5,376.7c0,9.9-6.7,17.8-17.8,17.8s-17.8-8-17.8-17.8c0-9.8,6.8-17.8,17.7-17.8S322.5,366.9,322.5,376.7
				z M295.4,376.7c0,5.2,3.1,10.1,9.3,10.1s9.3-4.9,9.3-10.1c0-5.1-3.6-10.1-9.3-10.1C298.6,366.6,295.4,371.6,295.4,376.7z"/>
			<path class="st1" d="M336.8,345.3v48.5h-8.4v-48.5H336.8z"/>
			<path class="st1" d="M352.5,345.3v28l11.5-13.7h10.1v0.5l-13.9,15.6l15.9,17.5v0.6h-10.2l-13.4-15.5v15.5H344v-48.5H352.5z"/>
			<path class="st1" d="M389.2,349.9c0,6.6-10,6.6-10,0C379.2,343.3,389.2,343.3,389.2,349.9z M379.9,359.4v34.4h8.5v-34.4H379.9z"
				/>
			<path class="st1" d="M408,349.9v9.7h9.4v7.3h-9.5v14.8c0,3.3,1.8,4.9,4.4,4.9c1.3,0,2.8-0.4,4.1-1l2.4,7.2c-2.4,1-4.4,1.4-7,1.5
				c-7.4,0.3-12.3-4-12.3-12.5v-14.8h-6.4v-7.3h6.4v-8.8L408,349.9z"/>
		</g>
	</g>
	<g>
		<g>
			<path class="st1" d="M250.9,523.3c0.4,0,0.8,0.1,1.3,0.3l-0.6-1l1.3-0.7l4.4,7.6c0.6,1.1,0.9,2,1,2.8c0.1,1.5-0.7,2.7-2.3,3.6
				c-0.9,0.5-1.8,0.8-2.6,0.7c-0.8,0-1.5-0.5-2.1-1.3l1.4-0.8c0.3,0.3,0.6,0.5,0.9,0.6c0.5,0.1,1.1,0,1.8-0.4
				c1.1-0.6,1.6-1.4,1.4-2.3c-0.1-0.6-0.4-1.4-1.1-2.5c0,0.6-0.2,1.1-0.5,1.5c-0.3,0.4-0.7,0.8-1.4,1.2c-0.9,0.5-1.9,0.7-2.9,0.4
				c-1-0.2-2-1.1-2.8-2.6c-0.8-1.4-1.1-2.7-0.9-3.8c0.2-1.2,0.8-2,1.8-2.6C249.6,523.5,250.3,523.3,250.9,523.3z M252,524.7
				c-0.7-0.3-1.4-0.2-2.1,0.2c-1,0.6-1.4,1.4-1.2,2.5c0.1,0.6,0.4,1.3,0.8,2.1c0.5,0.9,1.1,1.5,1.8,1.8s1.3,0.2,2-0.2
				c1-0.6,1.4-1.4,1.3-2.6c-0.1-0.6-0.3-1.3-0.7-2C253.3,525.6,252.7,525,252,524.7z"/>
			<path class="st1" d="M253.1,517.5l1.4-0.8l0.9,1.6l-1.4,0.8L253.1,517.5z M255,520.6l1.4-0.8l4.8,8.3l-1.4,0.8L255,520.6z"/>
			<path class="st1" d="M257.4,516l1.4-0.8l1.3,2.3l1.3-0.8l0.7,1.1l-1.3,0.8l3.1,5.4c0.2,0.3,0.4,0.4,0.6,0.4
				c0.1,0,0.3-0.1,0.6-0.2c0.1,0,0.1-0.1,0.2-0.1c0.1,0,0.2-0.1,0.3-0.2l0.6,1.1c-0.1,0.1-0.3,0.3-0.4,0.4c-0.2,0.1-0.3,0.2-0.5,0.4
				c-0.7,0.4-1.2,0.5-1.6,0.3s-0.8-0.6-1.1-1.1l-3.2-5.5l-1.1,0.7l-0.7-1.1l1.1-0.6L257.4,516z"/>
			<path class="st1" d="M261.1,512.9l1.4-0.8l2.5,4.3c0.1-0.6,0.2-1.1,0.4-1.4c0.3-0.6,0.8-1,1.4-1.4c1.2-0.7,2.3-0.7,3.2-0.2
				c0.5,0.3,1,0.9,1.5,1.7l3.1,5.3l-1.4,0.8l-3-5.2c-0.4-0.6-0.7-1-1-1.2c-0.5-0.3-1.1-0.3-1.8,0.1c-0.6,0.3-1,0.8-1.2,1.5
				c-0.2,0.7,0,1.6,0.6,2.7l2.5,4.4l-1.4,0.8L261.1,512.9z"/>
			<path class="st1" d="M273.1,510.1l3.2,5.5c0.2,0.4,0.5,0.7,0.8,0.9c0.5,0.4,1.1,0.3,1.8-0.1c1-0.6,1.4-1.4,1.2-2.4
				c-0.1-0.6-0.4-1.3-0.8-2.1l-2.4-4.1l1.4-0.8l4.8,8.3l-1.3,0.8l-0.7-1.2c0,0.4-0.1,0.8-0.2,1.2c-0.3,0.7-0.8,1.3-1.6,1.8
				c-1.2,0.7-2.2,0.8-3.1,0.2c-0.5-0.3-0.9-0.8-1.3-1.5l-3.3-5.6L273.1,510.1z"/>
			<path class="st1" d="M278.6,502.7l1.4-0.8l2.4,4.1c0.1-0.6,0.3-1.1,0.6-1.5c0.3-0.5,0.7-0.8,1.2-1.1c1-0.6,2.1-0.7,3.1-0.4
				c1.1,0.3,2,1.2,2.8,2.6c0.8,1.3,1.1,2.6,0.9,3.8s-0.8,2.2-1.9,2.8c-0.6,0.4-1.3,0.5-1.9,0.5c-0.4,0-0.8-0.2-1.3-0.4l0.6,1.1
				l-1.3,0.7L278.6,502.7z M289.5,509.2c0-0.8-0.2-1.7-0.8-2.7c-0.5-0.9-1.1-1.5-1.8-1.8c-0.7-0.4-1.4-0.3-2.2,0.1
				c-0.6,0.4-1.1,0.9-1.3,1.7c-0.2,0.7,0,1.7,0.6,2.7c0.5,0.8,0.9,1.4,1.4,1.7c0.9,0.7,1.8,0.8,2.8,0.2
				C289.1,510.6,289.5,510,289.5,509.2z"/>
			<path class="st1" d="M293.5,507.1l1.6-0.9l1,1.7l-1.6,0.9L293.5,507.1z"/>
			<path class="st1" d="M299.5,495.4c0.8,0.1,1.7,0.7,2.4,1.7l-1.4,0.8c-0.4-0.5-0.8-0.8-1.3-0.9c-0.5-0.2-1.1-0.1-1.7,0.3
				c-0.9,0.5-1.3,1.3-1.2,2.4c0.1,0.7,0.4,1.5,0.8,2.3c0.5,0.8,1.1,1.4,1.7,1.8c0.7,0.4,1.4,0.3,2.2-0.1c0.6-0.3,0.9-0.8,1.1-1.3
				c0.1-0.5,0.1-1.2-0.1-1.9l1.4-0.8c0.5,1.2,0.6,2.2,0.2,3.1c-0.3,0.9-1,1.6-1.9,2.1c-1.1,0.6-2.2,0.7-3.3,0.3
				c-1.1-0.4-2-1.2-2.7-2.4c-0.8-1.5-1.1-2.8-0.9-4c0.2-1.2,0.9-2.1,2-2.8C297.8,495.5,298.7,495.3,299.5,495.4z"/>
			<path class="st1" d="M308.3,490.9c1.2,0.3,2.1,1.1,2.9,2.5c0.8,1.3,1.1,2.6,0.9,3.9c-0.1,1.3-0.9,2.3-2.3,3.1
				c-1.1,0.7-2.3,0.8-3.4,0.4c-1.1-0.4-2.1-1.2-2.8-2.5c-0.8-1.4-1.1-2.7-0.9-4c0.2-1.2,0.9-2.2,2.1-2.9
				C306,490.7,307.1,490.6,308.3,490.9z M310.6,496.9c-0.1-0.9-0.3-1.8-0.8-2.6c-0.4-0.8-0.9-1.3-1.5-1.7c-0.8-0.5-1.7-0.5-2.7,0
				c-0.9,0.5-1.3,1.2-1.3,2.1s0.2,1.8,0.8,2.7c0.5,0.9,1.1,1.5,1.9,1.9c0.7,0.4,1.5,0.3,2.4-0.2
				C310.2,498.5,310.7,497.8,310.6,496.9z"/>
			<path class="st1" d="M310.6,488.4l1.4-0.8l0.7,1.2c0.1-0.6,0.2-1.1,0.4-1.4c0.3-0.6,0.7-1,1.3-1.4c0.7-0.4,1.3-0.5,1.9-0.4
				c0.3,0.1,0.7,0.2,1.1,0.5c0.1-0.6,0.2-1.2,0.5-1.6c0.3-0.5,0.7-0.8,1.2-1.1c1.1-0.6,2.1-0.7,3-0.1c0.5,0.3,0.9,0.8,1.3,1.6
				l3.2,5.5l-1.5,0.8l-3.3-5.8c-0.3-0.6-0.7-0.9-1.1-0.9c-0.4,0-0.8,0-1.2,0.3c-0.5,0.3-0.9,0.8-1.1,1.4c-0.2,0.6,0,1.3,0.5,2.2
				l2.8,4.8l-1.4,0.8l-3.1-5.4c-0.3-0.6-0.6-0.9-0.9-1.1c-0.4-0.3-0.9-0.2-1.5,0.1c-0.5,0.3-0.9,0.8-1.1,1.4c-0.2,0.7,0,1.5,0.6,2.6
				l2.5,4.4l-1.4,0.8L310.6,488.4z"/>
			<path class="st1" d="M324.6,476.2l1.2-0.7l3,13.5l-1.2,0.7L324.6,476.2z"/>
			<path class="st1" d="M328.3,478.2l1.3-0.8l0.8,1.4c-0.1-0.3,0-0.8,0.2-1.5c0.2-0.6,0.6-1.1,1.1-1.4c0,0,0.1,0,0.1-0.1
				c0.1,0,0.2-0.1,0.3-0.2l0.9,1.5c-0.1,0-0.2,0.1-0.2,0.1c-0.1,0-0.2,0.1-0.2,0.1c-0.7,0.4-1.1,0.9-1.2,1.6c-0.1,0.7,0,1.3,0.3,1.9
				l2.8,4.8l-1.4,0.8L328.3,478.2z"/>
			<path class="st1" d="M334.1,472.9l-1.4,0.8l-0.9-1.6l1.4-0.8L334.1,472.9z M338.2,486.4c0.6-0.4,1-0.7,1-0.8c0.1-0.2,0-0.5-0.3-1
				l-5.4-9.4l1.4-0.8l5.5,9.5c0.3,0.6,0.5,1.1,0.5,1.5c0,0.7-0.5,1.3-1.4,1.8c-0.1,0-0.1,0.1-0.2,0.1c-0.1,0-0.2,0.1-0.4,0.2
				L338.2,486.4z"/>
			<path class="st1" d="M341.8,470.8c0.3,0,0.8,0.1,1.3,0.3l-2.4-4.2l1.3-0.8l6.6,11.4l-1.3,0.7l-0.7-1.2c0,0.7-0.2,1.3-0.5,1.8
				s-0.8,0.9-1.3,1.2c-0.9,0.5-2,0.6-3.1,0.2c-1.1-0.4-2.1-1.2-2.8-2.5c-0.7-1.2-1-2.4-0.9-3.7c0.1-1.2,0.7-2.2,1.9-2.9
				C340.6,470.9,341.2,470.7,341.8,470.8z M342.2,478.8c0.7,0.4,1.5,0.3,2.3-0.1c0.6-0.4,1-1,1.1-1.8c0.1-0.8-0.2-1.7-0.8-2.8
				c-0.6-1-1.3-1.7-2-2c-0.7-0.3-1.4-0.2-2,0.2c-0.7,0.4-1.1,1-1.2,1.8c-0.1,0.8,0.1,1.7,0.7,2.8
				C340.9,477.8,341.5,478.4,342.2,478.8z"/>
			<path class="st1" d="M346.6,467.7l6.1,5.5l-1.6-8.1l1.5-0.9l1.7,10.1l-1.5,0.9l-7.9-6.5L346.6,467.7z"/>
			<path class="st1" d="M359.1,460.7c0.7,0,1.3,0.1,1.9,0.3c0.5,0.3,1,0.6,1.4,1.1c0.3,0.3,0.7,0.9,1.2,1.8l-6.1,3.5
				c0.5,0.8,1.1,1.4,1.8,1.7c0.7,0.3,1.4,0.2,2.2-0.2c0.7-0.4,1.2-1,1.3-1.7c0.1-0.4,0.1-0.8,0-1.3l1.4-0.8c0.1,0.3,0.2,0.7,0.2,1.2
				c0,0.5,0,0.9-0.2,1.3c-0.2,0.7-0.5,1.2-1.1,1.7c-0.3,0.3-0.6,0.5-1.1,0.8c-1,0.6-2.1,0.7-3.3,0.4c-1.2-0.3-2.1-1.2-2.9-2.5
				c-0.8-1.3-1-2.6-0.8-3.9c0.2-1.3,0.9-2.2,2.1-2.9C357.8,460.9,358.4,460.7,359.1,460.7z M361.5,463.7c-0.4-0.6-0.8-1-1.2-1.2
				c-0.8-0.5-1.6-0.4-2.5,0.1c-0.6,0.4-1,0.9-1.2,1.6c-0.2,0.7-0.1,1.4,0.3,2.2L361.5,463.7z"/>
			<path class="st1" d="M362.7,458.3l1.3-0.8l0.8,1.4c-0.1-0.3,0-0.8,0.2-1.5s0.6-1.1,1.1-1.4c0,0,0.1,0,0.1-0.1
				c0.1,0,0.2-0.1,0.3-0.2l0.9,1.5c-0.1,0-0.2,0.1-0.2,0.1c-0.1,0-0.2,0.1-0.2,0.1c-0.7,0.4-1.1,0.9-1.2,1.6s0,1.3,0.3,1.9l2.8,4.8
				l-1.4,0.8L362.7,458.3z"/>
			<path class="st1" d="M372.1,460.5c0.3,0.4,0.6,0.7,1,0.9c0.6,0.2,1.4,0.1,2.2-0.4c0.5-0.3,0.9-0.7,1.2-1.1c0.3-0.5,0.3-0.9,0-1.4
				c-0.2-0.4-0.5-0.5-0.9-0.5c-0.3,0-0.7,0.1-1.4,0.3l-1.3,0.4c-0.8,0.2-1.4,0.3-1.9,0.3c-0.8,0-1.4-0.4-1.8-1
				c-0.5-0.8-0.5-1.6-0.3-2.4c0.3-0.8,0.9-1.5,1.9-2c1.3-0.7,2.4-0.9,3.3-0.5c0.6,0.3,1.1,0.7,1.4,1.2l-1.3,0.8
				c-0.2-0.3-0.5-0.5-0.8-0.7c-0.5-0.2-1.2,0-2,0.4c-0.5,0.3-0.9,0.6-1,1c-0.2,0.4-0.1,0.7,0.1,1c0.2,0.4,0.6,0.5,1,0.6
				c0.3,0,0.7-0.1,1.1-0.2l1.1-0.3c1.1-0.3,2-0.5,2.4-0.5c0.7,0,1.3,0.4,1.8,1.2c0.4,0.7,0.5,1.5,0.3,2.4c-0.3,0.9-1,1.6-2.1,2.3
				c-1.2,0.7-2.3,0.9-3.1,0.7c-0.8-0.3-1.5-0.8-2-1.6L372.1,460.5z"/>
			<path class="st1" d="M381.2,448c0.7,0,1.3,0.1,1.9,0.3c0.5,0.3,1,0.6,1.4,1.1c0.3,0.3,0.7,0.9,1.2,1.8l-6.1,3.5
				c0.5,0.8,1.1,1.4,1.8,1.7c0.7,0.3,1.4,0.2,2.2-0.2c0.7-0.4,1.2-1,1.3-1.7c0.1-0.4,0.1-0.8,0-1.3l1.4-0.8c0.1,0.3,0.2,0.7,0.2,1.2
				c0,0.5,0,0.9-0.2,1.3c-0.2,0.7-0.5,1.2-1.1,1.7c-0.3,0.3-0.6,0.5-1.1,0.8c-1,0.6-2.1,0.7-3.3,0.4c-1.2-0.3-2.1-1.2-2.9-2.5
				c-0.8-1.3-1-2.6-0.8-3.9c0.2-1.3,1-2.2,2.1-2.9C379.9,448.2,380.5,448,381.2,448z M383.6,450.9c-0.4-0.6-0.8-1-1.2-1.2
				c-0.8-0.5-1.6-0.4-2.5,0.1c-0.6,0.4-1,0.9-1.2,1.6c-0.2,0.7-0.1,1.4,0.3,2.2L383.6,450.9z"/>
			<path class="st1" d="M385.6,441l1.2-0.7l3,13.5l-1.2,0.7L385.6,441z"/>
			<path class="st1" d="M389.2,443l1.3-0.8l0.8,1.4c-0.1-0.3,0-0.8,0.2-1.5c0.2-0.6,0.6-1.1,1.1-1.4c0,0,0.1,0,0.1-0.1
				c0.1,0,0.2-0.1,0.3-0.2l0.9,1.5c-0.1,0-0.2,0.1-0.2,0.1s-0.2,0.1-0.2,0.1c-0.7,0.4-1.1,0.9-1.2,1.6c-0.1,0.7,0,1.3,0.3,1.9
				l2.8,4.8l-1.4,0.8L389.2,443z"/>
			<path class="st1" d="M395,437.7l-1.4,0.8l-0.9-1.6l1.4-0.8L395,437.7z M399.1,451.2c0.6-0.4,1-0.7,1-0.8c0.1-0.2,0-0.5-0.3-1
				l-5.4-9.4l1.4-0.8l5.5,9.5c0.3,0.6,0.5,1.1,0.5,1.5c0,0.7-0.5,1.3-1.4,1.8c-0.1,0-0.1,0.1-0.2,0.1c-0.1,0-0.2,0.1-0.4,0.2
				L399.1,451.2z"/>
			<path class="st1" d="M402.7,435.6c0.3,0,0.8,0.1,1.3,0.3l-2.4-4.2l1.3-0.8l6.6,11.4l-1.3,0.7l-0.7-1.2c0,0.7-0.2,1.3-0.5,1.8
				c-0.3,0.5-0.8,0.9-1.3,1.2c-0.9,0.5-2,0.6-3.1,0.2c-1.1-0.4-2.1-1.2-2.8-2.5c-0.7-1.2-1-2.4-0.9-3.7c0.1-1.2,0.7-2.2,1.9-2.9
				C401.5,435.7,402.1,435.6,402.7,435.6z M403.2,443.6c0.7,0.4,1.5,0.3,2.3-0.1c0.6-0.4,1-1,1.1-1.8c0.1-0.8-0.2-1.7-0.8-2.8
				c-0.6-1-1.3-1.7-2-2c-0.7-0.3-1.4-0.2-2,0.2c-0.7,0.4-1.1,1-1.2,1.8c-0.1,0.8,0.1,1.7,0.7,2.8
				C401.8,442.6,402.5,443.2,403.2,443.6z"/>
			<path class="st1" d="M411.4,440.3c-1-0.4-1.8-1.1-2.4-2.1l1.5-0.8c0.5,0.7,0.9,1.1,1.3,1.3c0.7,0.4,1.5,0.3,2.5-0.3
				c0.7-0.4,1.2-1,1.4-1.6c0.2-0.6,0.1-1.3-0.2-1.9c-0.4-0.8-1-1.2-1.6-1.2c-0.6,0-1.4,0.2-2.2,0.7c-0.1,0.1-0.2,0.1-0.3,0.2
				c-0.1,0.1-0.2,0.1-0.3,0.2l-0.7-1.2c0.2-0.1,0.3-0.1,0.4-0.2c0.1-0.1,0.2-0.1,0.3-0.2c0.5-0.3,0.9-0.6,1.1-1
				c0.4-0.6,0.4-1.3,0-2.1c-0.3-0.6-0.8-0.9-1.3-0.9c-0.6-0.1-1.1,0-1.6,0.3c-0.9,0.5-1.4,1.2-1.4,2c0,0.5,0.2,1,0.5,1.7l-1.4,0.8
				c-0.5-0.8-0.7-1.6-0.7-2.4c0-1.4,0.7-2.5,2.1-3.3c1.1-0.7,2.2-0.9,3.1-0.8s1.6,0.7,2.2,1.7c0.4,0.7,0.5,1.3,0.4,2
				c-0.1,0.4-0.3,0.8-0.5,1.1c0.7-0.2,1.3-0.1,1.9,0.1c0.6,0.3,1.1,0.7,1.5,1.4c0.6,1.1,0.8,2.1,0.4,3.2s-1.1,2-2.4,2.7
				C413.6,440.5,412.4,440.6,411.4,440.3z"/>
			<path class="st1" d="M414.6,425.3l1.4-0.8l1.3,2.3l1.3-0.8l0.7,1.1l-1.3,0.8l3.1,5.4c0.2,0.3,0.4,0.4,0.6,0.4
				c0.1,0,0.3-0.1,0.6-0.2c0.1,0,0.1-0.1,0.2-0.1c0.1,0,0.2-0.1,0.3-0.2l0.6,1.1c-0.1,0.1-0.3,0.3-0.4,0.4c-0.2,0.1-0.3,0.2-0.5,0.4
				c-0.7,0.4-1.2,0.5-1.6,0.3c-0.4-0.2-0.8-0.6-1.1-1.1l-3.2-5.5l-1.1,0.6l-0.7-1.1l1.1-0.6L414.6,425.3z"/>
			<path class="st1" d="M426.6,422.6c1.2,0.3,2.1,1.1,2.9,2.5c0.8,1.3,1.1,2.6,0.9,3.9c-0.1,1.3-0.9,2.3-2.3,3.1
				c-1.1,0.7-2.3,0.8-3.4,0.4c-1.1-0.4-2.1-1.2-2.8-2.5c-0.8-1.4-1.1-2.7-0.9-4c0.2-1.2,0.9-2.2,2.1-2.9
				C424.4,422.4,425.5,422.3,426.6,422.6z M428.9,428.6c-0.1-0.9-0.3-1.8-0.8-2.6c-0.4-0.8-0.9-1.3-1.5-1.7c-0.8-0.5-1.7-0.5-2.7,0
				c-0.9,0.5-1.3,1.2-1.3,2.1s0.2,1.8,0.8,2.7c0.5,0.9,1.1,1.5,1.9,1.9c0.7,0.4,1.5,0.3,2.4-0.2C428.6,430.2,429,429.5,428.9,428.6z
				"/>
			<path class="st1" d="M435.5,417.5c1.2,0.3,2.1,1.1,2.9,2.5c0.8,1.3,1.1,2.6,0.9,3.9c-0.1,1.3-0.9,2.3-2.3,3.1
				c-1.1,0.7-2.3,0.8-3.4,0.4c-1.1-0.4-2.1-1.2-2.8-2.5c-0.8-1.4-1.1-2.7-0.9-4c0.2-1.2,0.9-2.2,2.1-2.9
				C433.2,417.3,434.3,417.2,435.5,417.5z M437.8,423.5c-0.1-0.9-0.3-1.8-0.8-2.6c-0.4-0.8-0.9-1.3-1.5-1.7c-0.8-0.5-1.7-0.5-2.7,0
				c-0.9,0.5-1.3,1.2-1.3,2.1c0,0.9,0.2,1.8,0.8,2.7c0.5,0.9,1.1,1.5,1.9,1.9c0.7,0.4,1.5,0.3,2.4-0.2
				C437.4,425.1,437.8,424.4,437.8,423.5z"/>
			<path class="st1" d="M436,411.9l1.4-0.8l6.6,11.4l-1.4,0.8L436,411.9z"/>
			<path class="st1" d="M439.5,409.9l1.3-0.8l3.8,6.6l1.5-5.6l1.8-1l-1.4,4.9l6.4,3.3l-1.8,1l-5-2.7l-0.6,1.7l1.8,3.1l-1.3,0.8
				L439.5,409.9z"/>
			<path class="st1" d="M447.4,405.3l1.4-0.8l0.9,1.6l-1.4,0.8L447.4,405.3z M449.2,408.4l1.4-0.8l4.8,8.3l-1.4,0.8L449.2,408.4z"/>
			<path class="st1" d="M451.7,403.9l1.4-0.8l1.3,2.3l1.3-0.8l0.7,1.1l-1.3,0.8l3.1,5.4c0.2,0.3,0.4,0.4,0.6,0.4
				c0.1,0,0.3-0.1,0.6-0.2c0.1,0,0.1-0.1,0.2-0.1c0.1,0,0.2-0.1,0.3-0.2l0.6,1.1c-0.1,0.1-0.3,0.3-0.4,0.4c-0.2,0.1-0.3,0.2-0.5,0.4
				c-0.7,0.4-1.2,0.5-1.6,0.3c-0.4-0.2-0.8-0.6-1.1-1.1l-3.2-5.5l-1.1,0.6l-0.7-1.1l1.1-0.6L451.7,403.9z"/>
		</g>
	</g>
</g>
<g id="Marteau" class="st8">
</g>
<g id="Pinces" class="st8">
</g>
<g id="Niveau" class="st8">
</g>
<g id="Clefs" class="st8">
</g>
<g id="wd40" class="st8">
</g>
<g id="Tournevis" class="st8">
</g>
<g id="Ciseaux" class="st8">
</g>
<g id="Mtre" class="st8">
</g>
</svg>
